<?xml version="1.0" encoding="UTF-8"?>
<svg id="misyst-logo" version="1.1" viewBox="0 0 171 171" xmlns="http://www.w3.org/2000/svg" xmlns:xlink="http://www.w3.org/1999/xlink">
<defs>
<linearGradient id="gradient-1-0" x1="20.559" x2="20.559" y2="80.371" gradientTransform="rotate(90 130.79 65.19)" gradientUnits="userSpaceOnUse">
<stop stop-color="#70a62a" offset=".4"/>
<stop stop-color="#93af38" offset="1"/>
</linearGradient>
<linearGradient id="gradient-2-0" x1="105.67" x2="105.67" y1="90.331" y2="170.52" gradientTransform="rotate(180 106.11 130.34)" gradientUnits="userSpaceOnUse">
<stop stop-color="#4796bd" offset=".4"/>
<stop stop-color="#5ab8db" offset="1"/>
</linearGradient>
</defs>
<g transform="translate(0)">
<g transform="translate(-.27213 .28257)">
<path d="m91.05 85.336c17.665-15.535 50.709-49.249 68.966-39.6 22.811 13.22 3.473 38.772 3.473 38.963-0.0434 0.0932-0.12781 0.22706-0.12781 0.63309-8.9211 0-64.668 4e-3 -72.311 4e-3z" fill="url(#gradient-1-0)"/>
<path d="m91.044 85.178c17.665 15.535 51.311 48.949 68.966 39.6 22.811-13.22 3.5803-38.728 3.474-38.963-0.12405-0.22788-0.121-0.33025-0.121-0.637-6.6161-0.0472-62.555 2e-3 -72.319 0z" fill="#388b2c"/>
<path d="m86.048 90.181c15.535 17.664 48.648 51.235 39.6 68.966-13.22 22.81-37.85 3.9324-38.172 3.7462-0.33438-0.19291-0.72643-0.39421-1.4276-0.39421-0.0561-7.8597 2e-3 -63.262 0-72.318z" fill="url(#gradient-2-0)"/>
<path d="m86.23 90.174c-15.535 17.665-49.496 51.093-39.6 68.966 13.22 22.81 37.055 4.7459 38.145 3.9481 0.44333-0.30083 1.0031-0.59609 1.4468-0.59609 0-9.0982 0.0057-61.495 0.0078-72.318z" fill="#4084b0"/>
<path d="m80.584 84.998c-17.665 15.535-49.807 48.347-68.967 39.6-22.81-13.22-3.861-37.773-3.473-38.963 0.06222-0.12912 0.121-0.42225 0.121-0.637h72.319z" fill="#408a84"/>
<path d="m80.603 85.164c-17.665-15.535-50.935-49.549-68.966-39.6-22.811 13.22-3.5964 38.503-3.474 38.963 0.09346 0.176 0.10147 0.43244 0.10147 0.637 18.635 0.134 62.045-2e-3 72.339 0z" fill="#368261"/>
<path d="m86.586 80.447c-15.652-17.796-49.921-51.312-39.897-69.477 13.319-22.98 38.792-3.623 39.255-3.4997 0.17732 0.094194 0.43156 0.14526 0.63767 0.14526 0.13501 18.773 0.0021 62.461 0.0041 72.831z" fill="#3b934f" stroke-width="1.0074"/>
<path d="m86.389 80.437c15.28-17.724 48.07-51.342 38.949-69.208-13.003-22.886-37.712-3.9754-37.981-3.803-0.22478 0.1841-0.75249 0.18573-0.96865 0.18029z" fill="#388b2c" stroke-width=".9934"/>
</g>
</g>
</svg>
