<?xml version="1.0" encoding="UTF-8"?>
<svg id="misyst-logo" version="1.1" viewBox="0 0 171 171" xmlns="http://www.w3.org/2000/svg">
 <defs>
  <linearGradient id="gradient-1-0" x1="20.559" x2="20.559" y2="80.371" gradientTransform="matrix(-1.0035 0 0 -1.0004 261.49 130.42)" gradientUnits="userSpaceOnUse">
   <stop stop-color="#416e21" offset=".25"/>
   <stop stop-color="#638137" offset="1"/>
  </linearGradient>
  <linearGradient id="gradient-2-0" x1="105.67" x2="105.67" y1="90.331" y2="170.52" gradientTransform="matrix(1.0144 0 0 1.0029 -3.0737 -.3174)" gradientUnits="userSpaceOnUse">
   <stop stop-color="#2185bc" offset="0"/>
   <stop stop-color="#2292c4" offset="1"/>
  </linearGradient>
 </defs>
 <g transform="translate(0)">
  <g transform="translate(-.27213 .28257)">
   <path d="m90.343 85.336c17.665-15.535 49.807-48.347 68.966-39.6 22.811 13.22 3.862 37.772 3.473 38.963-0.112 1.051 0.323-0.105-0.12 0.637-18.635 0.133-62.026-2e-3 -72.319 0z" fill="url(#gradient-1-0)"/>
   <path d="m90.337 85.178c17.665 15.535 49.807 48.347 68.966 39.6 22.811-13.22 3.862-37.772 3.474-38.963-0.113-1.051 0.322 0.106-0.121-0.637-18.635-0.133-62.025 2e-3 -72.319 0z" fill="#366e35"/>
   <path d="m85.168 90.331c15.535 17.664 48.347 49.806 39.6 68.966-13.22 22.81-37.772 3.862-38.963 3.473-1.051-0.113 0.105 0.323-0.637-0.121-0.133-18.635 2e-3 -62.025 0-72.318z" fill="url(#gradient-2-0)"/>
   <path d="m85.346 90.351c-15.535 17.665-48.346 49.806-39.6 68.966 13.22 22.81 37.773 3.862 38.963 3.473 1.051-0.113-0.105 0.323 0.637-0.121 0.134-18.635-2e-3 -62.025 0-72.318z" fill="#2080b6"/>
   <path d="m80.407 85.174c-17.665 15.535-49.807 48.347-68.967 39.6-22.81-13.22-3.861-37.773-3.473-38.963 0.113-1.051-0.322 0.105 0.121-0.637 18.635-0.134 62.025 2e-3 72.319 0z" fill="#097756"/>
   <path d="m80.426 85.34c-17.665-15.535-49.807-48.346-68.966-39.6-22.811 13.22-3.862 37.773-3.474 38.963 0.113 1.051-0.322-0.105 0.121 0.637 18.635 0.134 62.025-2e-3 72.319 0z" fill="#097146"/>
   <path d="m85.346 80.427c-15.535-17.665-48.346-49.807-39.6-68.967 13.22-22.81 37.773-3.861 38.963-3.473 1.051 0.113-0.105-0.322 0.637 0.121 0.134 18.635-2e-3 62.025 0 72.319z" fill="#187233"/>
   <path d="m85.168 80.406c15.535-17.665 48.347-49.807 39.6-68.967-13.22-22.81-37.773-3.861-38.963-3.473-1.051 0.113 0.105-0.322-0.637 0.121-0.134 18.635 2e-3 62.025 0 72.319z" fill="#136d2d"/>
  </g>
 </g>
</svg>