<?xml version="1.0" encoding="UTF-8"?>
<svg id="misyst-logo" version="1.1" viewBox="0 0 171 171" xmlns="http://www.w3.org/2000/svg" xmlns:xlink="http://www.w3.org/1999/xlink">
<defs>
  <linearGradient id="gradient-1-0" x1="20.559" x2="20.559" y2="80.371" gradientTransform="matrix(0 1.0035 -1.0004 0 196.02 -66.216)" gradientUnits="userSpaceOnUse">
   <stop stop-color="#416e21" offset=".25"/>
   <stop stop-color="#638137" offset="1"/>
  </linearGradient>
  <linearGradient id="gradient-2-0" x1="105.67" x2="105.67" y1="90.331" y2="170.52" gradientTransform="matrix(-1.0144 0 0 -1.0029 214.41 261.17)" gradientUnits="userSpaceOnUse">
   <stop stop-color="#2185bc" offset="0"/>
   <stop stop-color="#2292c4" offset="1"/>
  </linearGradient>
 </defs>
 <g transform="translate(0)">
  <g transform="translate(-.27213 .28257)">
   <rect transform="translate(.27213 -.28257)" x="-2.2008" y="-3.5212" width="176.94" height="179.58" display="none" fill="#1a1a1a"/>
   <path d="m91.05 85.245c17.672-15.589 50.73-49.421 68.994-39.738 22.82 13.266 3.4744 38.907 3.4744 39.099-0.0434 0.09352-0.12786 0.22785-0.12786 0.6353-8.9248 0-64.695 4e-3 -72.341 4e-3z" fill="url(#gradient-1-0)"/>
   <path d="m91.044 85.019c17.666 15.613 51.314 49.195 68.97 39.799 22.812-13.286 3.5805-38.923 3.4742-39.159-0.12405-0.22903-0.121-0.33191-0.121-0.6402-6.6165-0.04744-62.559 2e-3 -72.323 0z" fill="#366e35"/>
   <path d="m86.413 90.181c15.759 17.715 49.351 51.382 40.172 69.163-13.411 22.875-38.397 3.9436-38.724 3.7569-0.33921-0.19346-0.73693-0.39534-1.4482-0.39534-0.05691-7.8822 2e-3 -63.443 0-72.525z" fill="url(#gradient-2-0)"/>
    <path d="m86.642 90.174c-15.678 17.665-49.953 51.093-39.966 68.966 13.342 22.81 37.397 4.7459 38.497 3.9481 0.44742-0.30083 1.0124-0.59609 1.4602-0.59609 0-9.0982 0.0058-61.495 0.0079-72.318z" fill="#2080b6"/>
    <path d="m80.604 84.998c-17.65 15.684-49.764 48.809-68.908 39.979-22.79-13.346-3.8577-38.134-3.47-39.336 0.062166-0.13035 0.1209-0.42629 0.1209-0.64309z" fill="#097756"/>
    <path d="m80.603 85.186c-17.665-15.535-50.935-49.549-68.966-39.6-22.811 13.22-3.5964 38.503-3.474 38.963 0.09346 0.176 0.10147 0.43244 0.10147 0.637 18.635 0.134 62.045-2e-3 72.339 0z" fill="#097146"/>
    <path d="m86.586 80.376c-15.652-17.738-49.921-51.145-39.897-69.251 13.319-22.905 38.792-3.6112 39.255-3.4883 0.17732 0.09389 0.43156 0.14479 0.63767 0.14479 0.13501 18.712 0.0021 62.258 0.0041 72.595z" fill="#187233"/>
    <path d="m86.389 80.377c15.745-17.711 49.533-51.304 40.135-69.156-13.399-22.869-38.86-3.9724-39.137-3.8002-0.23162 0.18396-0.77539 0.18559-0.99813 0.18016z" fill="#136d2d"/>
</g>
</g>
</svg>
