<?xml version="1.0" standalone="no"?>
<!DOCTYPE svg PUBLIC "-//W3C//DTD SVG 1.1//EN" "http://www.w3.org/Graphics/SVG/1.1/DTD/svg11.dtd" >
<svg xmlns="http://www.w3.org/2000/svg" xmlns:xlink="http://www.w3.org/1999/xlink" version="1.1">
<metadata></metadata>
<defs>
<font id="arimoregularregular" horiz-adv-x="1139" >
<font-face units-per-em="2048" ascent="1638" descent="-410" />
<missing-glyph horiz-adv-x="569" />
<glyph horiz-adv-x="0" />
<glyph horiz-adv-x="0" />
<glyph unicode="&#xd;" horiz-adv-x="569" />
<glyph unicode=" "  horiz-adv-x="569" />
<glyph unicode="&#x09;" horiz-adv-x="569" />
<glyph unicode="&#xa0;" horiz-adv-x="569" />
<glyph unicode="!" horiz-adv-x="569" d="M185 0v201h194v-201h-194zM187 1409h196l-24 -1012h-148z" />
<glyph unicode="&#x22;" horiz-adv-x="727" d="M87 1409h184l-22 -443h-141zM456 1409h184l-22 -443h-142z" />
<glyph unicode="#" d="M9 408v108h225l78 369h-252v108h274l89 408h110l-88 -408h363l88 408h110l-88 -408h211v-108h-233l-78 -369h260v-108h-283l-88 -408h-110l86 408h-363l-84 -408h-110l84 408h-201zM345 516h362l78 369h-360z" />
<glyph unicode="$" d="M22 379l170 37q25 -119 104.5 -179t221.5 -69v496q-59 15 -105.5 28.5t-81 26.5t-57.5 24q-101 53 -144.5 123.5t-43.5 179.5q0 155 112.5 242.5t319.5 96.5v131h124v-131q125 -6 211 -41t140 -103.5t82 -175.5l-174 -33q-20 94 -81 146.5t-178 63.5v-445 q89 -21 153 -40.5t102 -36.5q114 -53 161.5 -128t47.5 -196q0 -165 -121 -265t-343 -111v-162h-124v162q-213 9 -337 99t-159 260zM258 1048q0 -60 25 -100q25 -41 74.5 -69t160.5 -56v421q-260 -14 -260 -196zM642 167q141 9 216.5 67t75.5 160q0 65 -26 107t-75 70 q-49 27 -191 64v-468z" />
<glyph unicode="%" horiz-adv-x="1821" d="M73 975q0 223 77 334.5t244 111.5q313 0 313 -446q0 -217 -79.5 -334t-237.5 -117t-237.5 116t-79.5 335zM220 975q0 -173 40 -255.5t132 -82.5q87 0 127.5 84t40.5 254q0 176 -38 257t-128 81q-94 0 -134 -79.5t-40 -258.5zM372 0l922 1409h157l-924 -1409h-155z M1113 434q0 228 76.5 339.5t242.5 111.5q164 0 240 -114.5t76 -336.5q0 -215 -81 -330.5t-239 -115.5q-156 0 -235.5 112.5t-79.5 333.5zM1260 434q0 -171 39.5 -253.5t130.5 -82.5q88 0 129 83.5t41 252.5q0 179 -38.5 259.5t-129.5 80.5t-131.5 -79t-40.5 -261z" />
<glyph unicode="&#x26;" horiz-adv-x="1366" d="M72 371q0 139 85.5 246t257.5 183q-33 62 -57 147t-24 155q0 150 91.5 232.5t259.5 82.5q151 0 243.5 -76t92.5 -208q0 -70 -31.5 -130.5t-102.5 -116.5q-49 -37 -116.5 -73t-158.5 -72q109 -203 293 -412q113 167 171 410l145 -43q-62 -247 -212 -469q96 -98 208 -98 q72 0 117 16v-135q-54 -22 -141 -22q-88 0 -162.5 31.5t-135.5 95.5q-155 -135 -372 -135q-215 0 -333 103.5t-118 287.5zM240 373q0 -121 77.5 -191.5t211.5 -70.5q71 0 142 27.5t124 78.5q-99 117 -178.5 231t-140.5 226q-236 -101 -236 -301zM487 1102q0 -112 65 -244 q131 53 193 92t93 84t31 99q0 72 -50 117.5t-136 45.5q-96 0 -146 -51.5t-50 -142.5z" />
<glyph unicode="'" horiz-adv-x="391" d="M104 1409h184l-22 -443h-141z" />
<glyph unicode="(" horiz-adv-x="682" d="M127 528q0 195 40 361t122 313t207 282h174q-187 -208 -274.5 -442t-87.5 -512q0 -184 38 -349t118 -314.5t206 -290.5h-174q-126 136 -208 283t-121.5 312.5t-39.5 356.5z" />
<glyph unicode=")" horiz-adv-x="682" d="M12 -424q126 140 206 289.5t118 314t38 350.5q0 279 -87.5 512t-274.5 442h174q126 -136 207.5 -283t121.5 -312t40 -357q0 -194 -40 -360.5t-121.5 -313t-207.5 -282.5h-174z" />
<glyph unicode="*" horiz-adv-x="797" d="M33 1085l45 134l267 -107l-12 297h136l-13 -295l264 103l45 -132l-282 -73l185 -250l-119 -72l-150 258l-156 -256l-119 72l189 248z" />
<glyph unicode="+" horiz-adv-x="1196" d="M100 608v146h424v428h147v-428h424v-146h-424v-428h-147v428h-424z" />
<glyph unicode="," horiz-adv-x="569" d="M184 -262q47 68 70.5 133.5t23.5 128.5h-88v219h195v-168q0 -106 -19 -177t-59 -136h-123z" />
<glyph unicode="-" horiz-adv-x="682" d="M91 464v160h500v-160h-500z" />
<glyph unicode="." horiz-adv-x="569" d="M187 0v219h195v-219h-195z" />
<glyph unicode="/" horiz-adv-x="569" d="M0 -20l411 1504h158l-407 -1504h-162z" />
<glyph unicode="0" d="M80 705q0 363 118.5 544t374.5 181q249 0 367.5 -183t118.5 -542q0 -353 -124.5 -539t-367.5 -186t-365 185t-122 540zM262 705q0 -200 32.5 -328t100.5 -189t174 -61q159 0 233 142t74 436q0 204 -30.5 331.5t-97.5 187.5t-175 60q-110 0 -179 -59t-100.5 -186.5 t-31.5 -333.5z" />
<glyph unicode="1" d="M156 0v153h359v1084l-318 -227v170l333 229h166v-1256h343v-153h-883z" />
<glyph unicode="2" d="M103 0v127q51 117 123.5 207t154.5 162t162 134q40 31 75.5 62t67.5 62q64 62 103.5 130t39.5 154q0 116 -68 180t-189 64q-115 0 -189.5 -62.5t-87.5 -175.5l-184 17q20 169 143.5 269t317.5 100q213 0 327.5 -100.5t114.5 -285.5q0 -82 -37.5 -163t-111.5 -162 q-37 -40 -108 -103t-175 -148q-115 -94 -183 -169.5t-98 -145.5h735v-153h-933z" />
<glyph unicode="3" d="M78 362l186 17q36 -250 307 -250q136 0 213.5 67t77.5 199q0 115 -88.5 179.5t-255.5 64.5h-102v156h98q148 0 229.5 64.5t81.5 178.5q0 113 -66.5 178.5t-197.5 65.5q-119 0 -192.5 -61t-85.5 -172l-181 14q20 173 143.5 270t317.5 97q212 0 329.5 -98.5t117.5 -274.5 q0 -135 -75.5 -219.5t-219.5 -114.5v-4q158 -17 246 -106t88 -224q0 -195 -124 -302t-354 -107q-214 0 -341.5 96.5t-151.5 285.5z" />
<glyph unicode="4" d="M47 319v140l645 950h189v-948h198v-142h-198v-319h-170v319h-664zM213 461h498v562q0 46 0.5 91.5t3.5 91.5q-23 -44 -40 -71.5t-31 -47.5z" />
<glyph unicode="5" d="M82 315l182 21q29 -104 102 -156.5t191 -52.5q145 0 227 87.5t82 240.5q0 133 -82.5 215t-222.5 82q-73 0 -136 -23t-126 -78h-176l47 758h801v-153h-637l-27 -447q117 90 291 90q139 0 241 -55.5t158 -154.5t56 -230q0 -223 -132.5 -351t-367.5 -128q-197 0 -318 86 t-153 249z" />
<glyph unicode="6" d="M104 672q0 366 131 562t373 196q160 0 260.5 -72t141.5 -215l-172 -31q-52 172 -232 172q-154 0 -238.5 -143.5t-84.5 -415.5q49 91 138 138.5t204 47.5q195 0 309.5 -122t114.5 -328q0 -223 -121 -352t-334 -129q-238 0 -364 177t-126 515zM301 496q0 -108 37 -192 t101.5 -131.5t148.5 -47.5q130 0 204 87.5t74 240.5t-75 236t-209 83q-126 0 -203.5 -73.5t-77.5 -202.5z" />
<glyph unicode="7" d="M105 1256v153h931v-146q-108 -165 -184.5 -294t-120.5 -223q-89 -187 -133.5 -369t-44.5 -377h-188q0 140 29 284.5t93 303.5q60 149 152.5 314.5t222.5 353.5h-757z" />
<glyph unicode="8" d="M89 391q0 138 79 232t202 114v4q-115 27 -181.5 117t-66.5 211q0 161 120.5 261t323.5 100q208 0 328.5 -98t120.5 -265q0 -121 -67 -211t-183 -113v-4q135 -22 210 -114.5t75 -231.5q0 -195 -124 -304t-356 -109q-226 0 -353.5 107t-127.5 304zM275 406 q0 -145 74.5 -218t222.5 -73q147 0 219 70.5t72 224.5q0 131 -78 197.5t-219 66.5q-137 0 -214 -71.5t-77 -196.5zM306 1057q0 -121 68.5 -184.5t193.5 -63.5q127 0 193.5 58.5t66.5 189.5q0 239 -262 239q-260 0 -260 -239z" />
<glyph unicode="9" d="M96 956q0 221 124 347.5t345 126.5q235 0 356 -174t121 -523q0 -363 -132.5 -558t-377.5 -195q-165 0 -264.5 69.5t-142.5 224.5l172 27q54 -176 238 -176q155 0 240 144t89 411q-40 -90 -137 -144.5t-213 -54.5q-126 0 -220 59t-146 166t-52 250zM279 956 q0 -154 75 -243.5t203 -89.5q78 0 143.5 36t105.5 100.5t40 147.5q0 170 -78 273.5t-209 103.5q-130 0 -205 -88.5t-75 -239.5z" />
<glyph unicode=":" horiz-adv-x="569" d="M187 0v207h195v-207h-195zM187 875v207h195v-207h-195z" />
<glyph unicode=";" horiz-adv-x="569" d="M184 -262q47 68 70.5 133.5t23.5 128.5h-88v207h195v-156q0 -106 -19 -177t-59 -136h-123zM190 875v207h195v-207h-195z" />
<glyph unicode="&#x3c;" horiz-adv-x="1196" d="M101 571v205l995 418v-154l-858 -366l858 -367v-153z" />
<glyph unicode="=" horiz-adv-x="1196" d="M100 344v148h995v-148h-995zM100 856v148h995v-148h-995z" />
<glyph unicode="&#x3e;" horiz-adv-x="1196" d="M101 154v153l858 367l-858 366v154l995 -418v-205z" />
<glyph unicode="?" d="M84 1020q26 198 156 304t344 106q223 0 351 -105.5t128 -292.5q0 -113 -48.5 -192t-170.5 -169l-80 -59q-142 -102 -143 -235h-175q3 92 35.5 155t82.5 107.5t103 82.5q57 41 106 81t78.5 92t29.5 129q0 114 -77.5 180t-217.5 66t-222 -70t-96 -192zM438 0v201h195v-201 h-195z" />
<glyph unicode="@" horiz-adv-x="2079" d="M161 491q0 279 125 509q125 229 345.5 356.5t494.5 127.5q241 0 416 -90q175 -91 267.5 -256t92.5 -383q0 -186 -57 -336q-58 -151 -160.5 -233t-229.5 -82q-99 0 -153 44t-54 132q1 17 1.5 35t1.5 35h-6q-66 -123 -163.5 -184.5t-210.5 -61.5q-157 0 -243.5 102 t-86.5 283q0 163 65 305q65 141 180.5 224t256.5 83q218 0 301 -182h6l39 160h156l-116 -506q-37 -161 -37 -253q0 -47 20.5 -70.5t60.5 -23.5q81 0 148 69q68 69 106.5 190t38.5 268q0 178 -77 318q-77 138 -222 212.5t-339 74.5q-241 0 -428 -107q-186 -107 -292 -308.5 t-106 -451.5q0 -194 79 -340q78 -148 226.5 -227t346.5 -79q145 0 294 37.5t309 124.5l55 -112q-145 -87 -314.5 -132.5t-343.5 -45.5q-241 0 -421 96q-181 95 -276.5 271.5t-95.5 406.5zM706 491q0 -120 47.5 -188t146.5 -68q78 0 149.5 43t126.5 116q39 52 65.5 119 t40.5 130.5t14 103.5q0 102 -66 164.5t-176 62.5q-101 0 -180 -64q-78 -63 -123 -175.5t-45 -243.5z" />
<glyph unicode="A" horiz-adv-x="1366" d="M4 0l575 1409h217l566 -1409h-195l-161 412h-642l-162 -412h-198zM422 561h527l-181 465q-14 35 -37 99t-46 140q-17 -56 -40.5 -124.5t-43.5 -120.5z" />
<glyph unicode="B" horiz-adv-x="1366" d="M168 0v1409h512q248 0 372 -85.5t124 -256.5q0 -125 -70 -210t-198 -114q168 -20 259 -112.5t91 -233.5q0 -188 -137 -292.5t-381 -104.5h-572zM359 153h371q175 0 255 65t80 194q0 249 -350 249h-356v-508zM359 810h321q153 0 228.5 57.5t75.5 176.5q0 114 -78 163 t-226 49h-321v-446z" />
<glyph unicode="C" horiz-adv-x="1479" d="M104 711q0 225 82 386t236 247t368 86q225 0 376 -88t222 -261l-181 -60q-49 123 -157.5 188t-257.5 65q-234 0 -364 -150.5t-130 -412.5q0 -172 61.5 -301.5t174 -201t266.5 -71.5q296 0 445 293l156 -78q-87 -182 -244.5 -277t-365.5 -95q-214 0 -368 89t-236.5 253.5 t-82.5 388.5z" />
<glyph unicode="D" horiz-adv-x="1479" d="M168 0v1409h466q358 0 552.5 -179.5t194.5 -510.5q0 -223 -86.5 -384t-241 -248t-358.5 -87h-527zM359 153h314q157 0 272.5 69t179.5 196t64 301q0 262 -143.5 399.5t-415.5 137.5h-271v-1103z" />
<glyph unicode="E" horiz-adv-x="1366" d="M168 0v1409h1069v-156h-878v-452h818v-154h-818v-491h919v-156h-1110z" />
<glyph unicode="F" horiz-adv-x="1251" d="M168 0v1409h1001v-156h-810v-524h786v-158h-786v-571h-191z" />
<glyph unicode="G" horiz-adv-x="1593" d="M103 711q0 343 184 531t517 188q234 0 380 -79t225 -253l-182 -54q-60 120 -165.5 175t-262.5 55q-244 0 -373 -147.5t-129 -415.5q0 -267 137 -421.5t379 -154.5q138 0 257.5 42t193.5 114v254h-421v160h597v-486q-112 -114 -274.5 -176.5t-352.5 -62.5q-220 0 -379 89 t-245 253.5t-86 388.5z" />
<glyph unicode="H" horiz-adv-x="1479" d="M168 0v1409h191v-596h762v596h191v-1409h-191v653h-762v-653h-191z" />
<glyph unicode="I" horiz-adv-x="569" d="M189 0v1409h191v-1409h-191z" />
<glyph unicode="J" horiz-adv-x="1024" d="M32 350l187 31q18 -116 81 -181t158 -65q104 0 164 71.5t60 209.5v837h-271v156h461v-989q0 -205 -111 -322.5t-304 -117.5q-179 0 -285 92.5t-140 277.5z" />
<glyph unicode="K" horiz-adv-x="1366" d="M168 0v1409h191v-706l679 706h225l-600 -612l680 -797h-237l-563 680l-184 -140v-540h-191z" />
<glyph unicode="L" d="M168 0v1409h191v-1253h712v-156h-903z" />
<glyph unicode="M" horiz-adv-x="1706" d="M168 0v1409h251l375 -977q20 -59 38.5 -126.5t24.5 -97.5q6 27 20 74.5t28 91.5t20 58l368 977h245v-1409h-172v940q0 78 2.5 153t6.5 147q-25 -89 -46.5 -159.5t-41.5 -120.5l-364 -960h-134l-369 960l-89 280q2 -75 4.5 -150t2.5 -150v-940h-170z" />
<glyph unicode="N" horiz-adv-x="1479" d="M168 0v1409h222l762 -1208q-12 197 -12 284v924h172v-1409h-230l-754 1200q2 -66 6 -132t4 -132v-936h-170z" />
<glyph unicode="O" horiz-adv-x="1593" d="M97 711q0 226 83.5 386.5t240 246.5t376.5 86q216 0 372.5 -85t241 -245.5t84.5 -388.5q0 -226 -85.5 -390t-242.5 -252.5t-372 -88.5q-216 0 -372.5 88t-241 252t-84.5 391zM291 711q0 -176 60 -305.5t173 -200t271 -70.5q244 0 374.5 150.5t130.5 425.5 q0 263 -131.5 413t-371.5 150q-242 0 -374 -148t-132 -415z" />
<glyph unicode="P" horiz-adv-x="1366" d="M168 0v1409h593q237 0 367 -111t130 -313q0 -133 -59 -231t-167.5 -151.5t-258.5 -53.5h-414v-549h-191zM359 700h387q160 0 240 70.5t80 212.5q0 273 -328 273h-379v-556z" />
<glyph unicode="Q" horiz-adv-x="1593" d="M97 711q0 226 83.5 386.5t240 246.5t376.5 86q222 0 378 -87.5t238 -248.5t82 -383q0 -198 -67.5 -351t-194.5 -247.5t-305 -118.5q41 -126 107.5 -182t168.5 -56q57 0 115 13v-134q-91 -22 -178 -22q-151 0 -248.5 85.5t-159.5 285.5q-202 10 -344 102t-217 252t-75 373 zM291 711q0 -176 60 -305.5t173 -200t271 -70.5q244 0 374.5 150.5t130.5 425.5q0 263 -131.5 413t-371.5 150q-242 0 -374 -148t-132 -415z" />
<glyph unicode="R" horiz-adv-x="1479" d="M168 0v1409h663q238 0 367.5 -106.5t129.5 -296.5q0 -157 -91.5 -264t-252.5 -135l400 -607h-220l-366 585h-439v-585h-191zM359 736h461q151 0 233.5 70.5t82.5 197.5q0 123 -83.5 187.5t-240.5 64.5h-453v-520z" />
<glyph unicode="S" horiz-adv-x="1366" d="M93 338l185 37q32 -127 136 -186.5t283 -59.5q185 0 285.5 63.5t100.5 186.5q0 69 -31.5 112t-88.5 71t-136 47t-175 41q-111 25 -185.5 49t-122.5 50.5t-82 56.5q-50 46 -76.5 107t-26.5 140q0 181 138.5 279t396.5 98q240 0 367 -73.5t178 -250.5l-188 -33 q-31 112 -118 162.5t-241 50.5q-169 0 -258 -56t-89 -167q0 -65 34.5 -107.5t99.5 -71.5q61 -29 259 -73q81 -19 160 -39.5t149 -51.5q41 -17 78.5 -41.5t65.5 -56.5q38 -42 59.5 -99t21.5 -134q0 -195 -152.5 -302t-429.5 -107q-515 0 -597 358z" />
<glyph unicode="T" horiz-adv-x="1251" d="M46 1253v156h1158v-156h-484v-1253h-190v1253h-484z" />
<glyph unicode="U" horiz-adv-x="1479" d="M158 512v897h191v-881q0 -193 98 -293t283 -100q190 0 295.5 103.5t105.5 302.5v868h190v-879q0 -171 -72.5 -294t-205 -189.5t-312.5 -66.5q-173 0 -302 64t-200 183t-71 285z" />
<glyph unicode="V" horiz-adv-x="1366" d="M9 1409h201l390 -992q24 -61 43.5 -124t40.5 -125q20 62 42 130t42 119l388 992h201l-575 -1409h-198z" />
<glyph unicode="W" horiz-adv-x="1933" d="M9 1409h199l253 -895q23 -84 43.5 -170.5t39.5 -175.5q8 37 21.5 97.5t28.5 123.5t27 106l256 914h183l245 -877q28 -107 50 -198.5t38 -165.5q15 59 31.5 127.5t31 125t20.5 80.5l251 908h199l-415 -1409h-228l-244 895q-12 42 -29.5 117t-40.5 184q-9 -53 -23.5 -114.5 t-28 -113.5t-20.5 -78l-245 -890h-228z" />
<glyph unicode="X" horiz-adv-x="1366" d="M46 0l536 732l-495 677h211l392 -553l381 553h211l-482 -670l523 -739h-211l-423 616l-432 -616h-211z" />
<glyph unicode="Y" horiz-adv-x="1366" d="M45 1409h210l429 -671l427 671h210l-544 -825v-584h-190v584z" />
<glyph unicode="Z" horiz-adv-x="1251" d="M65 0v143l858 1110h-785v156h1002v-139l-858 -1114h905v-156h-1122z" />
<glyph unicode="[" horiz-adv-x="569" d="M146 -425v1909h407v-129h-233v-1651h233v-129h-407z" />
<glyph unicode="\" horiz-adv-x="569" d="M0 1484h158l411 -1504h-162z" />
<glyph unicode="]" horiz-adv-x="569" d="M16 -296h233v1651h-233v129h407v-1909h-407v129z" />
<glyph unicode="^" horiz-adv-x="961" d="M10 673l368 736h203l370 -736h-164l-309 633l-306 -633h-162z" />
<glyph unicode="_" d="M-31 -277h1193v-130h-1193v130z" />
<glyph unicode="`" horiz-adv-x="682" d="M106 1479v29h207l217 -287v-20h-94z" />
<glyph unicode="a" d="M87 302q0 168 110.5 258t356.5 96l243 4v59q0 132 -56 189t-176 57q-121 0 -176 -41t-66 -131l-188 17q46 292 434 292q204 0 307 -93.5t103 -270.5v-466q0 -80 21 -120.5t80 -40.5q28 0 59 7v-112q-34 -8 -69 -12t-70 -4q-100 0 -145.5 52.5t-51.5 164.5h-6 q-69 -124 -160.5 -175.5t-222.5 -51.5q-163 0 -245 86t-82 236zM272 299q0 -88 47.5 -136t135.5 -48q100 0 176 45q77 45 121.5 123.5t44.5 161.5v89l-197 -4q-126 -1 -192 -26q-66 -24 -101 -74t-35 -131z" />
<glyph unicode="b" d="M132 0q3 27 4.5 82.5t1.5 140.5v1261h180v-423q0 -32 -1 -70.5t-3 -82.5h4q50 104 132.5 149t204.5 45q205 0 301.5 -138t96.5 -418q0 -283 -99.5 -424.5t-298.5 -141.5q-123 0 -204.5 44.5t-132.5 143.5h-2q0 -20 -2 -58t-4 -70.5t-4 -39.5h-174zM318 529 q0 -213 68 -314.5t221 -101.5q136 0 196.5 100.5t60.5 326.5q0 227 -60 325t-195 98q-152 0 -221.5 -104t-69.5 -330z" />
<glyph unicode="c" horiz-adv-x="1024" d="M87 542q0 273 120 416.5t344 143.5q166 0 275.5 -86t137.5 -237l-185 -14q-14 90 -71 143t-162 53q-143 0 -207 -95t-64 -320q0 -216 68 -320t205 -104q96 0 160.5 52t79.5 160l182 -12q-14 -104 -69.5 -181t-144 -119t-203.5 -42q-227 0 -346.5 143.5t-119.5 418.5z" />
<glyph unicode="d" d="M86 536q0 283 99.5 424.5t298.5 141.5q123 0 205 -45t132 -143h2l-2 121v449h180v-1261q0 -85 1.5 -140.5t4.5 -82.5h-172q-2 11 -4.5 41.5t-4 67.5t-1.5 65h-4q-50 -104 -132.5 -149t-204.5 -45q-205 0 -301.5 138t-96.5 418zM275 542q0 -227 60 -325t195 -98 q153 0 222 106t69 329q0 215 -69 315t-220 100q-136 0 -196.5 -100.5t-60.5 -326.5z" />
<glyph unicode="e" d="M87 548q0 268 125.5 411t358.5 143q239 0 358 -144t119 -431v-24h-772q0 -186 77 -287t225 -101q117 0 187.5 47t95.5 119l158 -45q-97 -256 -441 -256q-240 0 -365.5 143t-125.5 425zM278 641h584q-15 171 -87 249.5t-207 78.5q-131 0 -207.5 -87.5t-82.5 -240.5z" />
<glyph unicode="f" horiz-adv-x="569" d="M29 951v131h152v122q0 148 65 213t199 65q75 0 127 -12v-137q-48 8 -80 8q-69 0 -100 -35t-31 -127v-97h211v-131h-211v-951h-180v951h-152z" />
<glyph unicode="g" d="M86 539q0 287 100.5 423.5t305.5 136.5q115 0 199.5 -52.5t130.5 -149.5h2q0 20 2 62.5t5 80.5t5 42h171q-6 -54 -6 -224v-827q0 -228 -113 -342t-340 -114q-177 0 -282 69.5t-135 197.5l181 26q18 -75 79.5 -115.5t161.5 -40.5q134 0 201.5 79t67.5 236v174h-2 q-51 -104 -140 -156.5t-208 -52.5q-199 0 -292.5 132t-93.5 415zM272 541q0 -222 59 -319t202 -97q128 0 208.5 111.5t80.5 304.5q0 197 -80.5 310.5t-205.5 113.5q-138 0 -201 -100t-63 -324z" />
<glyph unicode="h" d="M142 0v1484h180v-386q0 -40 -2 -84.5t-3.5 -77t-2.5 -39.5h3q58 106 139.5 155.5t206.5 49.5q176 0 259.5 -91.5t83.5 -289.5v-721h-181v686q0 147 -51.5 212t-171.5 65q-127 0 -203.5 -88t-76.5 -237v-638h-180z" />
<glyph unicode="i" horiz-adv-x="455" d="M137 0v1082h180v-1082h-180zM137 1312v172h180v-172h-180z" />
<glyph unicode="j" horiz-adv-x="455" d="M-50 -277q16 -2 31 -4t31 -2q69 0 97 36t28 140v1189h180v-1216q0 -153 -60 -222t-180 -69q-78 0 -127 9v139zM137 1312v172h180v-172h-180z" />
<glyph unicode="k" horiz-adv-x="1024" d="M138 0v1484h180v-927l475 525h211l-439 -465l462 -617h-211l-366 494l-132 -109v-385h-180z" />
<glyph unicode="l" horiz-adv-x="455" d="M138 0v1484h180v-1484h-180z" />
<glyph unicode="m" horiz-adv-x="1706" d="M136 1082h170q2 -22 4 -54t3 -66.5t1 -64.5h3q58 115 133 160t183 45q123 0 194.5 -49t99.5 -156h3q56 109 135.5 157t192.5 48q164 0 238.5 -89t74.5 -292v-721h-178v686q0 157 -43 217t-155 60q-118 0 -183.5 -87.5t-65.5 -248.5v-627h-178v686q0 157 -43 217t-155 60 q-115 0 -182 -88t-67 -248v-627h-179v851q0 95 -1.5 152.5t-4.5 78.5z" />
<glyph unicode="n" d="M136 1082h170q2 -19 3.5 -48t2.5 -64t2 -73h3q62 112 143.5 158.5t202.5 46.5q178 0 260.5 -91t82.5 -290v-721h-181v686q0 155 -50 216t-173 61q-130 0 -205 -89t-75 -247v-627h-180v851q0 95 -1.5 152.5t-4.5 78.5z" />
<glyph unicode="o" d="M86 542q0 280 121.5 420t363.5 140q248 0 365 -136.5t117 -423.5q0 -284 -125 -423t-363 -139q-237 0 -358 144.5t-121 417.5zM275 542q0 -214 69.5 -321.5t218.5 -107.5q162 0 231.5 104t69.5 325q0 224 -66.5 325.5t-223.5 101.5q-158 0 -228.5 -103.5t-70.5 -323.5z " />
<glyph unicode="p" d="M132 1082h174q1 -4 3.5 -39t4.5 -75.5t2 -59.5h4q48 100 127 146.5t208 46.5q200 0 299 -134t99 -421q0 -283 -99.5 -424.5t-298.5 -141.5q-250 0 -336 188h-5q4 -7 4 -170v-423h-180v1286q0 83 -1.5 138.5t-4.5 82.5zM318 528q0 -213 68 -314t221 -101q134 0 195.5 98.5 t61.5 330.5q0 226 -61 323t-194 97q-148 0 -219.5 -102.5t-71.5 -331.5z" />
<glyph unicode="q" d="M86 536q0 283 99.5 424.5t298.5 141.5q123 0 204 -43.5t135 -144.5q0 20 2 62.5t5 79.5t5 40h173q-4 -29 -5.5 -103t-1.5 -192v-1226h-180v439l4 164h-2q-54 -107 -133 -152.5t-206 -45.5q-206 0 -302 139t-96 417zM275 542q0 -227 60.5 -325t194.5 -98q153 0 222 109 t69 326q0 211 -69 313t-220 102q-137 0 -197 -102t-60 -325z" />
<glyph unicode="r" horiz-adv-x="682" d="M136 1082h170q2 -46 3.5 -83t2.5 -64.5t1.5 -46t0.5 -27.5h4q30 98 66 152q35 50 80 69.5t111 19.5q37 0 73 -10v-165q-34 10 -96 10q-112 0 -171 -96.5t-59 -276.5v-564h-180v830q0 57 -1.5 120t-4.5 132z" />
<glyph unicode="s" horiz-adv-x="1024" d="M57 254l159 31q23 -87 95 -127.5t200 -40.5q137 0 200.5 42t63.5 126q0 64 -44 104t-142 66q-116 31 -184.5 51t-105.5 34.5t-59 27.5q-66 38 -103 93t-37 135q0 148 105.5 225.5t307.5 77.5q179 0 284.5 -63t133.5 -202l-162 -20q-15 72 -80.5 110.5t-175.5 38.5 q-122 0 -180 -37t-58 -112q0 -55 33 -90.5t126 -58.5q125 -30 238 -65.5t162 -70.5q57 -41 86.5 -96.5t29.5 -133.5q0 -153 -115.5 -236t-323.5 -83q-202 0 -311.5 66.5t-142.5 207.5z" />
<glyph unicode="t" horiz-adv-x="569" d="M31 951v131h132l53 242h120v-242h200v-131h-200v-683q0 -78 25.5 -109.5t88.5 -31.5q34 0 104 14v-133q-88 -24 -182 -24q-108 0 -162 61.5t-54 183.5v722h-125z" />
<glyph unicode="u" d="M133 361v721h181v-686q0 -162 50.5 -219.5t172.5 -57.5q130 0 205 89t75 247v627h180v-851q0 -94 1.5 -152t4.5 -79h-170q-1 5 -3.5 47t-4.5 138h-3q-62 -112 -143.5 -158.5t-202.5 -46.5q-178 0 -260.5 88.5t-82.5 292.5z" />
<glyph unicode="v" horiz-adv-x="1024" d="M7 1082h192l238 -704q7 -20 24 -79.5l45 -157.5q13 39 25.5 81.5t25 82.5t23.5 71l246 706h191l-404 -1082h-213z" />
<glyph unicode="w" horiz-adv-x="1479" d="M-3 1082h178l186 -749q8 -32 19 -81t21 -103q11 47 22.5 94t23.5 93l197 746h193l189 -743q12 -47 23.5 -95t22.5 -95q11 48 22.5 100.5t21.5 92.5l192 740h176l-310 -1082h-209l-189 765q-10 42 -18.5 84.5t-17.5 84.5q-4 -22 -14.5 -74.5t-21.5 -94.5l-196 -765h-208z " />
<glyph unicode="x" horiz-adv-x="1024" d="M23 0l385 556l-367 526h199l270 -421l268 421h201l-367 -524l390 -558h-201l-291 444l-293 -444h-194z" />
<glyph unicode="y" horiz-adv-x="1024" d="M5 1082h192l228 -598q25 -64 53.5 -145t44.5 -143q25 71 50.5 141t49.5 140l207 605h190l-416 -1082q-34 -86 -65 -150.5t-60 -106.5q-58 -85 -128.5 -126.5t-159.5 -41.5q-72 0 -124 11v135q38 -6 84 -6q84 0 155.5 62.5t127.5 227.5z" />
<glyph unicode="z" horiz-adv-x="1024" d="M83 0v137l605 806h-571v139h784v-137l-606 -806h627v-139h-839z" />
<glyph unicode="{" horiz-adv-x="684" d="M34 466v127q109 4 162 61.5t53 174.5v362q0 141 66.5 217t197.5 76h135v-129h-63q-91 0 -129.5 -53.5t-38.5 -161.5v-356q0 -94 -53 -162.5t-141 -89.5v-2q89 -21 141.5 -89t52.5 -165v-357q0 -106 38.5 -160.5t129.5 -54.5h63v-129h-135q-127 0 -195.5 77t-68.5 216v361 q0 117 -52.5 174.5t-162.5 62.5z" />
<glyph unicode="|" horiz-adv-x="532" d="M183 -434v1918h166v-1918h-166z" />
<glyph unicode="}" horiz-adv-x="684" d="M34 -296h60q91 0 130.5 54.5t39.5 160.5v357q0 98 52 166t141 88v2q-86 20 -139.5 87.5t-53.5 164.5v356q0 108 -39.5 161.5t-130.5 53.5h-60v129h132q131 0 197.5 -76t66.5 -217v-362q0 -116 53 -174t164 -62v-127q-112 -4 -164.5 -62t-52.5 -175v-361 q0 -138 -68.5 -215.5t-195.5 -77.5h-132v129z" />
<glyph unicode="~" horiz-adv-x="1196" d="M92 580v143q111 84 263 84q54 0 116 -13q32 -7 80 -21.5t113 -37.5q31 -12 91 -28.5t105 -16.5q129 0 244 92v-149q-58 -42 -116.5 -61t-143.5 -19q-69 0 -141.5 22t-145.5 48q-129 45 -217 45q-67 0 -125 -20.5t-123 -67.5z" />
<glyph unicode="&#xa1;" horiz-adv-x="682" d="M242 -327l24 1012h148l24 -1012h-196zM246 881v201h194v-201h-194z" />
<glyph unicode="&#xa2;" d="M135 697q0 253 102 396.5t301 160.5v155h124v-155q143 -15 233 -98t117 -222l-185 -14q-14 90 -71 143t-162 53q-143 0 -207 -95t-64 -320q0 -216 68 -320t205 -104q96 0 160.5 52t79.5 160l182 -12q-19 -144 -114 -235t-242 -105v-168h-124v168q-199 18 -301 160.5 t-102 399.5z" />
<glyph unicode="&#xa3;" d="M58 625v129h186v280q0 195 103 295.5t299 100.5q147 0 247 -60.5t134 -169.5l-174 -57q-21 64 -76.5 101.5t-126.5 37.5q-114 0 -170 -57.5t-56 -182.5v-288h408v-129h-408v-126q0 -119 -46 -212t-123 -134h483q87 0 138 44t65 132l163 -18q-17 -150 -105 -230.5 t-232 -80.5h-698v154q89 46 132 126t43 201v144h-186z" />
<glyph unicode="&#xa4;" d="M113 330l102 102q-78 114 -78 252t78 252l-100 100l104 103l99 -101q113 82 254 82q136 0 251 -80l97 97l104 -105l-96 -96q80 -118 80 -252q0 -139 -82 -252l100 -100l-102 -105l-101 101q-114 -78 -251 -78q-142 0 -252 80l-105 -105zM291 686q0 -78 38.5 -141.5 t102.5 -101t140 -37.5t139.5 37.5t102 101t38.5 141.5t-38.5 142t-102 101.5t-139.5 37.5t-139.5 -37.5t-102.5 -101t-39 -142.5z" />
<glyph unicode="&#xa5;" d="M-2 1409h199l371 -647l375 647h199l-422 -700h321v-125h-383v-154h383v-127h-383v-303h-178v303h-381v127h381l2 154h-383v125h320z" />
<glyph unicode="&#xa6;" horiz-adv-x="532" d="M183 345h166v-779h-166v779zM183 706v778h166v-778h-166z" />
<glyph unicode="&#xa7;" d="M115 100l161 31q20 -90 88 -131t213 -41q136 0 208.5 44t72.5 126q0 57 -32.5 95.5t-94.5 67.5q-61 29 -213 66q-194 45 -279.5 123t-85.5 190q0 89 61.5 163t166.5 104q-96 32 -151.5 99t-55.5 153q0 139 105.5 216.5t308.5 77.5q173 0 279.5 -66.5t133.5 -193.5 l-161 -20q-13 75 -76 112.5t-176 37.5q-125 0 -189.5 -39.5t-64.5 -110.5q0 -48 30.5 -83t85.5 -61q57 -26 185 -57q143 -34 225 -76q78 -42 121 -101t43 -140q0 -99 -59.5 -174t-159.5 -99q112 -48 162.5 -112.5t50.5 -155.5q0 -148 -115.5 -232.5t-325.5 -84.5 q-209 0 -318.5 66.5t-143.5 205.5zM313 684q0 -49 30 -85.5t85 -63.5q56 -27 184 -60q119 2 186.5 52.5t67.5 135.5q0 72 -69 124q-70 53 -246 93q-109 -6 -173.5 -59t-64.5 -137z" />
<glyph unicode="&#xa8;" horiz-adv-x="682" d="M45 1219v184h165v-184h-165zM439 1219v184h163v-184h-163z" />
<glyph unicode="&#xa9;" horiz-adv-x="1509" d="M31 707q0 194 97 361q97 168 265 265t361 97q194 0 363 -97q168 -97 264 -264.5t96 -361.5q0 -193 -96 -361q-97 -169 -265.5 -265.5t-361.5 -96.5q-196 0 -366 101q-169 101 -263 267t-94 355zM126 707q0 -170 85 -315q84 -146 229 -230t314 -84t316 84t231 230t84 315 t-84 314q-84 144 -230.5 229t-316.5 85q-168 0 -314 -84q-146 -85 -230 -231t-84 -313zM369 709q0 203 100 313.5t289 110.5q244 0 340 -209l-114 -33q-32 69 -90 103t-134 34q-127 0 -194.5 -80.5t-67.5 -238.5q0 -155 71 -240.5t196 -85.5q158 0 233 156l115 -35 q-62 -121 -146.5 -173t-201.5 -52q-188 0 -292 113t-104 317z" />
<glyph unicode="&#xaa;" horiz-adv-x="758" d="M26 870q0 237 312 242l178 4v60q0 81 -35 118t-116 37q-67 0 -107.5 -29.5t-49.5 -105.5l-149 10q16 106 95.5 166t208.5 60q145 0 220.5 -62.5t75.5 -187.5v-308q0 -58 14 -83t49 -25q10 0 20.5 2t22.5 6v-104q-48 -13 -83 -13q-73 0 -113.5 38t-44.5 103h-4 q-73 -147 -260 -147q-108 0 -171 58t-63 161zM176 883q0 -121 123 -121q90 0 153.5 59t63.5 138v65l-138 -4q-118 -6 -160 -39t-42 -98z" />
<glyph unicode="&#xab;" d="M83 506v63l336 371h167v-31l-335 -372l337 -367v-29h-169zM548 506v63l338 371h168v-31l-338 -372l340 -367v-29h-170z" />
<glyph unicode="&#xac;" horiz-adv-x="1196" d="M100 608v146h995v-574h-145v428h-850z" />
<glyph unicode="&#xad;" horiz-adv-x="682" d="M91 464v160h500v-160h-500z" />
<glyph unicode="&#xae;" horiz-adv-x="1509" d="M31 707q0 194 97 361q97 168 265 265t361 97q194 0 363 -97q168 -97 264 -264.5t96 -361.5q0 -193 -96 -361q-97 -169 -265.5 -265.5t-361.5 -96.5q-196 0 -366 101q-169 101 -263 267t-94 355zM126 707q0 -170 85 -315q84 -146 229 -230t314 -84t316 84t231 230t84 315 t-84 314q-84 144 -230.5 229t-316.5 85q-168 0 -314 -84q-146 -85 -230 -231t-84 -313zM468 289v831h307q142 0 217.5 -63t75.5 -174q0 -102 -52 -163.5t-137 -80.5l221 -350h-145l-199 336h-161v-336h-127zM595 721h182q80 0 122 42.5t42 117.5q0 69 -47.5 105t-128.5 36 h-170v-301z" />
<glyph unicode="&#xaf;" horiz-adv-x="1131" d="M-17 1452v94h1165v-94h-1165z" />
<glyph unicode="&#xb0;" horiz-adv-x="819" d="M122 1145q0 78 38.5 143t103.5 103.5t145 38.5t145 -38t103.5 -102.5t38.5 -144.5q0 -79 -39 -144t-104 -103t-144 -38q-78 0 -143.5 39t-104.5 103.5t-39 142.5zM231 1145q0 -74 52.5 -127t125.5 -53q74 0 126 52.5t52 127.5q0 76 -51.5 128t-126.5 52t-126.5 -53 t-51.5 -127z" />
<glyph unicode="&#xb1;" horiz-adv-x="1124" d="M65 0v145h995v-145h-995zM65 680v145h424v394h147v-394h424v-145h-424v-395h-147v395h-424z" />
<glyph unicode="&#xb2;" horiz-adv-x="682" d="M41 666q31 69 95.5 134.5t171.5 139.5q97 68 141 124t44 114q0 62 -35.5 99.5t-109.5 37.5q-68 0 -112 -36.5t-52 -104.5l-133 8q13 107 93.5 173t209.5 66q127 0 201.5 -61.5t74.5 -171.5q0 -147 -188 -285q-61 -45 -104 -79t-68 -57q-52 -48 -70 -91h443v-113h-600z " />
<glyph unicode="&#xb3;" horiz-adv-x="682" d="M27 778l136 13q18 -136 182 -136q160 0 160 148q0 137 -189 137h-61v109h57q80 0 126 36t46 101q0 60 -37 94.5t-108 34.5q-68 0 -110 -35t-48 -100l-135 12q13 109 91.5 169t205.5 60q130 0 204 -59.5t74 -157.5q0 -75 -43 -130t-133 -75v-2q91 -9 144 -61.5t53 -140.5 q0 -116 -77.5 -180t-219.5 -64q-143 0 -222.5 57t-95.5 170z" />
<glyph unicode="&#xb4;" horiz-adv-x="682" d="M72 1201v20l217 287h207v-29l-330 -278h-94z" />
<glyph unicode="&#xb5;" horiz-adv-x="1180" d="M140 -425v1507h181v-686q0 -138 53.5 -207.5t172.5 -69.5q128 0 201 87t73 249v627h180v-816q0 -76 18 -110.5t60 -34.5q24 0 54 8v-129q-32 -10 -60.5 -15t-52.5 -5q-91 0 -138.5 47t-52.5 147h-3q-53 -97 -127.5 -145.5t-171.5 -48.5q-67 0 -121.5 20.5t-85.5 58.5 v-484h-180z" />
<glyph unicode="&#xb6;" horiz-adv-x="1100" d="M80 1049q0 169 98.5 264.5t271.5 95.5h563v-102h-129v-1571h-112v1571h-217v-1571h-113v958q-168 0 -265 92.5t-97 262.5z" />
<glyph unicode="&#xb7;" horiz-adv-x="682" d="M243 446v220h195v-220h-195z" />
<glyph unicode="&#xb8;" horiz-adv-x="682" d="M119 -332q50 -6 86 -6q147 0 147 81q0 38 -33 57.5t-100 19.5q-22 0 -36 -0.5t-21 -1.5l65 182h107l-39 -100q94 -3 141 -43.5t47 -109.5q0 -91 -68.5 -136t-205.5 -45q-61 0 -90 4v98z" />
<glyph unicode="&#xb9;" horiz-adv-x="682" d="M80 563v107h211v620l-202 -138v120l210 137h123v-739h215v-107h-557z" />
<glyph unicode="&#xba;" horiz-adv-x="748" d="M27 1042q0 189 89 289.5t260 100.5q173 0 260 -97.5t87 -292.5q0 -188 -88 -289.5t-263 -101.5q-168 0 -256.5 100.5t-88.5 290.5zM179 1042q0 -145 45.5 -215.5t146.5 -70.5q111 0 157 69t46 217q0 154 -45.5 219.5t-149.5 65.5q-108 0 -154 -67.5t-46 -217.5z" />
<glyph unicode="&#xbb;" d="M83 141v29l338 367l-336 372v31h168l335 -371v-63l-335 -365h-170zM550 141v29l338 367l-336 372v31h166l338 -371v-63l-338 -365h-168z" />
<glyph unicode="&#xbc;" horiz-adv-x="1708" d="M56 563v107h211v620l-202 -138v120l210 137h123v-739h215v-107h-557zM345 0l881 1409h145l-878 -1409h-148zM966 180v111l386 557h151v-555h111v-113h-111v-178h-131v178h-406zM1093 293h279v289q0 33 0.5 66.5t1.5 66.5q-10 -20 -30 -54t-52 -81z" />
<glyph unicode="&#xbd;" horiz-adv-x="1708" d="M56 563v107h211v620l-202 -138v120l210 137h123v-739h215v-107h-557zM345 0l881 1409h145l-878 -1409h-148zM1051 105q31 69 95.5 134.5t171.5 139.5q97 68 141 124t44 114q0 62 -35.5 99.5t-109.5 37.5q-68 0 -112 -36.5t-52 -104.5l-133 8q13 107 93.5 173t209.5 66 q127 0 201.5 -61.5t74.5 -171.5q0 -147 -188 -285q-61 -45 -104 -79t-68 -57q-52 -48 -70 -91h443v-113h-600z" />
<glyph unicode="&#xbe;" horiz-adv-x="1708" d="M73 778l136 13q18 -136 182 -136q160 0 160 148q0 137 -189 137h-61v109h57q80 0 126 36t46 101q0 60 -37 94.5t-108 34.5q-68 0 -110 -35t-48 -100l-135 12q13 109 91.5 169t205.5 60q130 0 204 -59.5t74 -157.5q0 -75 -43 -130t-133 -75v-2q91 -9 144 -61.5t53 -140.5 q0 -116 -77.5 -180t-219.5 -64q-143 0 -222.5 57t-95.5 170zM365 0l881 1409h145l-878 -1409h-148zM966 180v111l386 557h151v-555h111v-113h-111v-178h-131v178h-406zM1093 293h279v289q0 33 0.5 66.5t1.5 66.5q-10 -20 -30 -54t-52 -81z" />
<glyph unicode="&#xbf;" horiz-adv-x="1251" d="M131 50q0 113 50 193.5t169 167.5l81 59q141 102 142 235h175q-2 -92 -35 -154.5t-82.5 -107t-103.5 -82.5q-57 -41 -105.5 -81t-78.5 -92.5t-30 -129.5q0 -114 77.5 -180t217.5 -66t222 70t96 192l184 -12q-26 -198 -156 -304t-344 -106q-223 0 -351 105.5t-128 292.5z M561 881v201h195v-201h-195z" />
<glyph unicode="&#xc0;" horiz-adv-x="1366" d="M4 0l575 1409h217l566 -1409h-195l-161 412h-642l-162 -412h-198zM422 561h527l-181 465q-14 35 -37 99t-46 140q-17 -56 -40.5 -124.5t-43.5 -120.5zM440 1747v29h207l217 -226v-20h-114z" />
<glyph unicode="&#xc1;" horiz-adv-x="1366" d="M4 0l575 1409h217l566 -1409h-195l-161 412h-642l-162 -412h-198zM422 561h527l-181 465q-14 35 -37 99t-46 140q-17 -56 -40.5 -124.5t-43.5 -120.5zM547 1530v20l217 226h207v-29l-310 -217h-114z" />
<glyph unicode="&#xc2;" horiz-adv-x="1366" d="M4 0l575 1409h217l566 -1409h-195l-161 412h-642l-162 -412h-198zM352 1530v20l234 240h204l224 -240v-20h-105l-219 139h-2l-232 -139h-104zM422 561h527l-181 465q-14 35 -37 99t-46 140q-17 -56 -40.5 -124.5t-43.5 -120.5z" />
<glyph unicode="&#xc3;" horiz-adv-x="1366" d="M4 0l575 1409h217l566 -1409h-195l-161 412h-642l-162 -412h-198zM327 1530q16 155 69.5 211.5t133.5 56.5q43 0 86 -20t84 -44q37 -21 71.5 -38t63.5 -17q50 0 79.5 30t37.5 89h92q-17 -148 -67 -208t-135 -60q-38 0 -77 17t-77 38q-41 23 -79.5 43.5t-72.5 20.5 q-55 0 -82 -31t-36 -88h-91zM422 561h527l-181 465q-14 35 -37 99t-46 140q-17 -56 -40.5 -124.5t-43.5 -120.5z" />
<glyph unicode="&#xc4;" horiz-adv-x="1366" d="M4 0l575 1409h217l566 -1409h-195l-161 412h-642l-162 -412h-198zM409 1530v184h165v-184h-165zM422 561h527l-181 465q-14 35 -37 99t-46 140q-17 -56 -40.5 -124.5t-43.5 -120.5zM803 1530v184h163v-184h-163z" />
<glyph unicode="&#xc5;" horiz-adv-x="1366" d="M4 0l575 1409h217l566 -1409h-195l-161 412h-642l-162 -412h-198zM422 561h527l-181 465q-14 35 -37 99t-46 140q-17 -56 -40.5 -124.5t-43.5 -120.5zM444 1546q0 68 33 122.5t88 86.5t121 32t121 -32.5t88 -87t33 -121.5q0 -66 -33 -121t-87.5 -88t-121.5 -33 q-66 0 -121 33t-88 88t-33 121zM551 1546q0 -55 38 -96t97 -41q58 0 96 40.5t38 96.5t-39 95t-95 39q-57 0 -96 -39t-39 -95z" />
<glyph unicode="&#xc6;" horiz-adv-x="2048" d="M24 0l686 1409h1209v-156h-759v-452h699v-154h-699v-491h800v-156h-991v412h-548l-198 -412h-199zM491 561h478v701h-151z" />
<glyph unicode="&#xc7;" horiz-adv-x="1479" d="M104 711q0 225 82 386t236 247t368 86q225 0 376 -88t222 -261l-181 -60q-49 123 -157.5 188t-257.5 65q-234 0 -364 -150.5t-130 -412.5q0 -172 61.5 -301.5t174 -201t266.5 -71.5q296 0 445 293l156 -78q-87 -182 -244.5 -277t-365.5 -95q-214 0 -368 89t-236.5 253.5 t-82.5 388.5zM629 -332q50 -6 86 -6q147 0 147 81q0 38 -33 57.5t-100 19.5q-22 0 -36 -0.5t-21 -1.5l65 182h107l-39 -100q94 -3 141 -43.5t47 -109.5q0 -91 -68.5 -136t-205.5 -45q-61 0 -90 4v98z" />
<glyph unicode="&#xc8;" horiz-adv-x="1366" d="M168 0v1409h1069v-156h-878v-452h818v-154h-818v-491h919v-156h-1110zM425 1747v29h207l217 -226v-20h-114z" />
<glyph unicode="&#xc9;" horiz-adv-x="1366" d="M168 0v1409h1069v-156h-878v-452h818v-154h-818v-491h919v-156h-1110zM551 1530v20l217 226h207v-29l-310 -217h-114z" />
<glyph unicode="&#xca;" horiz-adv-x="1366" d="M168 0v1409h1069v-156h-878v-452h818v-154h-818v-491h919v-156h-1110zM375 1530v20l234 240h204l224 -240v-20h-105l-219 139h-2l-232 -139h-104z" />
<glyph unicode="&#xcb;" horiz-adv-x="1366" d="M168 0v1409h1069v-156h-878v-452h818v-154h-818v-491h919v-156h-1110zM422 1530v184h165v-184h-165zM816 1530v184h163v-184h-163z" />
<glyph unicode="&#xcc;" horiz-adv-x="569" d="M9 1747v29h207l217 -226v-20h-114zM189 0v1409h191v-1409h-191z" />
<glyph unicode="&#xcd;" horiz-adv-x="569" d="M142 1530v20l217 226h207v-29l-310 -217h-114zM189 0v1409h191v-1409h-191z" />
<glyph unicode="&#xce;" horiz-adv-x="569" d="M-46 1530v20l234 240h204l224 -240v-20h-105l-219 139h-2l-232 -139h-104zM189 0v1409h191v-1409h-191z" />
<glyph unicode="&#xcf;" horiz-adv-x="569" d="M7 1530v184h165v-184h-165zM189 0v1409h191v-1409h-191zM401 1530v184h163v-184h-163z" />
<glyph unicode="&#xd0;" horiz-adv-x="1479" d="M14 647v154h154v608h466q358 0 552.5 -179.5t194.5 -510.5q0 -224 -86.5 -385t-241 -247.5t-358.5 -86.5h-527v647h-154zM359 153h314q159 0 275 69t178.5 196t62.5 301q0 262 -143.5 399.5t-415.5 137.5h-271v-455h406v-154h-406v-494z" />
<glyph unicode="&#xd1;" horiz-adv-x="1479" d="M168 0v1409h222l762 -1208q-12 197 -12 284v924h172v-1409h-230l-754 1200q2 -66 6 -132t4 -132v-936h-170zM394 1530q16 155 69.5 211.5t133.5 56.5q43 0 86 -20t84 -44q37 -21 71.5 -38t63.5 -17q50 0 79.5 30t37.5 89h92q-17 -148 -67 -208t-135 -60q-38 0 -77 17 t-77 38q-41 23 -79.5 43.5t-72.5 20.5q-55 0 -82 -31t-36 -88h-91z" />
<glyph unicode="&#xd2;" horiz-adv-x="1593" d="M97 711q0 226 83.5 386.5t240 246.5t376.5 86q216 0 372.5 -85t241 -245.5t84.5 -388.5q0 -226 -85.5 -390t-242.5 -252.5t-372 -88.5q-216 0 -372.5 88t-241 252t-84.5 391zM291 711q0 -176 60 -305.5t173 -200t271 -70.5q244 0 374.5 150.5t130.5 425.5 q0 263 -131.5 413t-371.5 150q-242 0 -374 -148t-132 -415zM544 1747v29h207l217 -226v-20h-114z" />
<glyph unicode="&#xd3;" horiz-adv-x="1593" d="M97 711q0 226 83.5 386.5t240 246.5t376.5 86q216 0 372.5 -85t241 -245.5t84.5 -388.5q0 -226 -85.5 -390t-242.5 -252.5t-372 -88.5q-216 0 -372.5 88t-241 252t-84.5 391zM291 711q0 -176 60 -305.5t173 -200t271 -70.5q244 0 374.5 150.5t130.5 425.5 q0 263 -131.5 413t-371.5 150q-242 0 -374 -148t-132 -415zM621 1530v20l217 226h207v-29l-310 -217h-114z" />
<glyph unicode="&#xd4;" horiz-adv-x="1593" d="M97 711q0 226 83.5 386.5t240 246.5t376.5 86q216 0 372.5 -85t241 -245.5t84.5 -388.5q0 -226 -85.5 -390t-242.5 -252.5t-372 -88.5q-216 0 -372.5 88t-241 252t-84.5 391zM291 711q0 -176 60 -305.5t173 -200t271 -70.5q244 0 374.5 150.5t130.5 425.5 q0 263 -131.5 413t-371.5 150q-242 0 -374 -148t-132 -415zM469 1530v20l234 240h204l224 -240v-20h-105l-219 139h-2l-232 -139h-104z" />
<glyph unicode="&#xd5;" horiz-adv-x="1593" d="M97 711q0 226 83.5 386.5t240 246.5t376.5 86q216 0 372.5 -85t241 -245.5t84.5 -388.5q0 -226 -85.5 -390t-242.5 -252.5t-372 -88.5q-216 0 -372.5 88t-241 252t-84.5 391zM291 711q0 -176 60 -305.5t173 -200t271 -70.5q244 0 374.5 150.5t130.5 425.5 q0 263 -131.5 413t-371.5 150q-242 0 -374 -148t-132 -415zM426 1530q16 155 69.5 211.5t133.5 56.5q43 0 86 -20t84 -44q37 -21 71.5 -38t63.5 -17q50 0 79.5 30t37.5 89h92q-17 -148 -67 -208t-135 -60q-38 0 -77 17t-77 38q-41 23 -79.5 43.5t-72.5 20.5q-55 0 -82 -31 t-36 -88h-91z" />
<glyph unicode="&#xd6;" horiz-adv-x="1593" d="M97 711q0 226 83.5 386.5t240 246.5t376.5 86q216 0 372.5 -85t241 -245.5t84.5 -388.5q0 -226 -85.5 -390t-242.5 -252.5t-372 -88.5q-216 0 -372.5 88t-241 252t-84.5 391zM291 711q0 -176 60 -305.5t173 -200t271 -70.5q244 0 374.5 150.5t130.5 425.5 q0 263 -131.5 413t-371.5 150q-242 0 -374 -148t-132 -415zM516 1530v184h165v-184h-165zM910 1530v184h163v-184h-163z" />
<glyph unicode="&#xd7;" horiz-adv-x="1196" d="M142 330l354 354l-352 352l104 103l350 -353l350 351l105 -105l-350 -348l352 -352l-102 -105l-353 353l-356 -355z" />
<glyph unicode="&#xd8;" horiz-adv-x="1593" d="M71 -53l200 241q-174 192 -174 523q0 226 83.5 386.5t240 246.5t376.5 86q247 0 414 -110l121 146h192l-201 -242q86 -95 129 -223.5t43 -289.5q0 -220 -85.5 -384.5t-242.5 -255.5t-372 -91q-247 0 -414 112l-120 -145h-190zM291 711q0 -229 101 -378l707 853 q-124 88 -302 88q-242 0 -374 -148t-132 -415zM493 226q121 -91 302 -91q244 0 374.5 150.5t130.5 425.5q0 223 -98 368z" />
<glyph unicode="&#xd9;" horiz-adv-x="1479" d="M158 512v897h191v-881q0 -193 98 -293t283 -100q190 0 295.5 103.5t105.5 302.5v868h190v-879q0 -171 -72.5 -294t-205 -189.5t-312.5 -66.5q-173 0 -302 64t-200 183t-71 285zM503 1747v29h207l217 -226v-20h-114z" />
<glyph unicode="&#xda;" horiz-adv-x="1479" d="M158 512v897h191v-881q0 -193 98 -293t283 -100q190 0 295.5 103.5t105.5 302.5v868h190v-879q0 -171 -72.5 -294t-205 -189.5t-312.5 -66.5q-173 0 -302 64t-200 183t-71 285zM565 1530v20l217 226h207v-29l-310 -217h-114z" />
<glyph unicode="&#xdb;" horiz-adv-x="1479" d="M158 512v897h191v-881q0 -193 98 -293t283 -100q190 0 295.5 103.5t105.5 302.5v868h190v-879q0 -171 -72.5 -294t-205 -189.5t-312.5 -66.5q-173 0 -302 64t-200 183t-71 285zM408 1530v20l234 240h204l224 -240v-20h-105l-219 139h-2l-232 -139h-104z" />
<glyph unicode="&#xdc;" horiz-adv-x="1479" d="M158 512v897h191v-881q0 -193 98 -293t283 -100q190 0 295.5 103.5t105.5 302.5v868h190v-879q0 -171 -72.5 -294t-205 -189.5t-312.5 -66.5q-173 0 -302 64t-200 183t-71 285zM459 1530v184h165v-184h-165zM853 1530v184h163v-184h-163z" />
<glyph unicode="&#xdd;" horiz-adv-x="1366" d="M45 1409h210l429 -671l427 671h210l-544 -825v-584h-190v584zM536 1530v20l217 226h207v-29l-310 -217h-114z" />
<glyph unicode="&#xde;" horiz-adv-x="1366" d="M168 0v1409h191v-252h402q239 0 368 -111t129 -311q0 -127 -58.5 -226t-167.5 -155.5t-259 -56.5h-414v-297h-191zM359 438h387q153 0 236.5 77.5t83.5 215.5q0 134 -82 208.5t-246 74.5h-379v-576z" />
<glyph unicode="&#xdf;" horiz-adv-x="1251" d="M142 0v1027q0 227 117.5 342t349.5 115q190 0 302.5 -80.5t112.5 -216.5q0 -71 -28.5 -132.5t-84.5 -113.5q-54 -49 -77.5 -74.5t-29.5 -41t-6 -34.5q0 -35 26.5 -65.5t68.5 -59.5t90 -61q184 -124 184 -310q0 -150 -94 -232.5t-264 -82.5q-172 0 -283 49l-2 164 q52 -29 132 -49t149 -20q92 0 141 43t49 122q0 64 -42.5 115t-139.5 109q-92 54 -137.5 120t-45.5 152q0 61 28.5 111t82.5 95q58 48 84.5 90t26.5 92q0 77 -67 123.5t-176 46.5q-148 0 -217.5 -80t-69.5 -242v-1021h-180z" />
<glyph unicode="&#xe0;" d="M87 302q0 168 110.5 258t356.5 96l243 4v59q0 132 -56 189t-176 57q-121 0 -176 -41t-66 -131l-188 17q46 292 434 292q204 0 307 -93.5t103 -270.5v-466q0 -80 21 -120.5t80 -40.5q28 0 59 7v-112q-34 -8 -69 -12t-70 -4q-100 0 -145.5 52.5t-51.5 164.5h-6 q-69 -124 -160.5 -175.5t-222.5 -51.5q-163 0 -245 86t-82 236zM272 299q0 -88 47.5 -136t135.5 -48q100 0 176 45q77 45 121.5 123.5t44.5 161.5v89l-197 -4q-126 -1 -192 -26q-66 -24 -101 -74t-35 -131zM294 1479v29h207l217 -287v-20h-94z" />
<glyph unicode="&#xe1;" d="M87 302q0 168 110.5 258t356.5 96l243 4v59q0 132 -56 189t-176 57q-121 0 -176 -41t-66 -131l-188 17q46 292 434 292q204 0 307 -93.5t103 -270.5v-466q0 -80 21 -120.5t80 -40.5q28 0 59 7v-112q-34 -8 -69 -12t-70 -4q-100 0 -145.5 52.5t-51.5 164.5h-6 q-69 -124 -160.5 -175.5t-222.5 -51.5q-163 0 -245 86t-82 236zM272 299q0 -88 47.5 -136t135.5 -48q100 0 176 45q77 45 121.5 123.5t44.5 161.5v89l-197 -4q-126 -1 -192 -26q-66 -24 -101 -74t-35 -131zM412 1201v20l217 287h207v-29l-330 -278h-94z" />
<glyph unicode="&#xe2;" d="M87 302q0 168 110.5 258t356.5 96l243 4v59q0 132 -56 189t-176 57q-121 0 -176 -41t-66 -131l-188 17q46 292 434 292q204 0 307 -93.5t103 -270.5v-466q0 -80 21 -120.5t80 -40.5q28 0 59 7v-112q-34 -8 -69 -12t-70 -4q-100 0 -145.5 52.5t-51.5 164.5h-6 q-69 -124 -160.5 -175.5t-222.5 -51.5q-163 0 -245 86t-82 236zM219 1201v20l234 270h204l224 -270v-20h-105l-219 169h-2l-232 -169h-104zM272 299q0 -88 47.5 -136t135.5 -48q100 0 176 45q77 45 121.5 123.5t44.5 161.5v89l-197 -4q-126 -1 -192 -26q-66 -24 -101 -74 t-35 -131z" />
<glyph unicode="&#xe3;" d="M87 302q0 168 110.5 258t356.5 96l243 4v59q0 132 -56 189t-176 57q-121 0 -176 -41t-66 -131l-188 17q46 292 434 292q204 0 307 -93.5t103 -270.5v-466q0 -80 21 -120.5t80 -40.5q28 0 59 7v-112q-34 -8 -69 -12t-70 -4q-100 0 -145.5 52.5t-51.5 164.5h-6 q-69 -124 -160.5 -175.5t-222.5 -51.5q-163 0 -245 86t-82 236zM222 1201q17 153 69 210.5t134 57.5q44 0 87.5 -20.5t84.5 -44.5q37 -21 70.5 -37.5t62.5 -16.5q50 0 79.5 30t37.5 89h92q-17 -148 -67 -208t-135 -60q-40 0 -80.5 18.5t-79.5 40.5q-40 23 -77 41.5t-69 18.5 q-55 0 -82 -31t-36 -88h-91zM272 299q0 -88 47.5 -136t135.5 -48q100 0 176 45q77 45 121.5 123.5t44.5 161.5v89l-197 -4q-126 -1 -192 -26q-66 -24 -101 -74t-35 -131z" />
<glyph unicode="&#xe4;" d="M87 302q0 168 110.5 258t356.5 96l243 4v59q0 132 -56 189t-176 57q-121 0 -176 -41t-66 -131l-188 17q46 292 434 292q204 0 307 -93.5t103 -270.5v-466q0 -80 21 -120.5t80 -40.5q28 0 59 7v-112q-34 -8 -69 -12t-70 -4q-100 0 -145.5 52.5t-51.5 164.5h-6 q-69 -124 -160.5 -175.5t-222.5 -51.5q-163 0 -245 86t-82 236zM272 299q0 -88 47.5 -136t135.5 -48q100 0 176 45q77 45 121.5 123.5t44.5 161.5v89l-197 -4q-126 -1 -192 -26q-66 -24 -101 -74t-35 -131zM280 1219v184h165v-184h-165zM674 1219v184h163v-184h-163z" />
<glyph unicode="&#xe5;" d="M87 302q0 168 110.5 258t356.5 96l243 4v59q0 132 -56 189t-176 57q-121 0 -176 -41t-66 -131l-188 17q46 292 434 292q204 0 307 -93.5t103 -270.5v-466q0 -80 21 -120.5t80 -40.5q28 0 59 7v-112q-34 -8 -69 -12t-70 -4q-100 0 -145.5 52.5t-51.5 164.5h-6 q-69 -124 -160.5 -175.5t-222.5 -51.5q-163 0 -245 86t-82 236zM272 299q0 -88 47.5 -136t135.5 -48q100 0 176 45q77 45 121.5 123.5t44.5 161.5v89l-197 -4q-126 -1 -192 -26q-66 -24 -101 -74t-35 -131zM315 1410q0 68 33 122.5t88 86.5t121 32t121 -32.5t88 -87 t33 -121.5q0 -66 -33 -121t-87.5 -88t-121.5 -33q-66 0 -121 33t-88 88t-33 121zM422 1410q0 -55 38 -96t97 -41q58 0 96 40.5t38 96.5t-39 95t-95 39q-57 0 -96 -39t-39 -95z" />
<glyph unicode="&#xe6;" horiz-adv-x="1821" d="M66 302q0 347 480 354l240 4v59q0 135 -55.5 190.5t-176.5 55.5q-126 0 -182.5 -40t-69.5 -132l-188 17q23 146 134 219t310 73q250 0 349 -139q118 139 346 139q239 0 358 -144t119 -431v-24h-762q0 -194 76 -291t216 -97q117 0 187.5 47t95.5 119l158 -45 q-97 -256 -441 -256q-321 0 -423 257q-79 -140 -184 -198.5t-251 -58.5q-167 0 -251.5 86t-84.5 236zM251 299q0 -87 50 -135.5t143 -48.5q103 0 179 45q77 44 120 121.5t43 163.5v89l-195 -4q-131 -3 -203 -29q-70 -27 -103.5 -77.5t-33.5 -124.5zM970 641h574 q-15 171 -87 249.5t-207 78.5q-127 0 -200.5 -85.5t-79.5 -242.5z" />
<glyph unicode="&#xe7;" horiz-adv-x="1024" d="M87 542q0 273 120 416.5t344 143.5q166 0 275.5 -86t137.5 -237l-185 -14q-14 90 -71 143t-162 53q-143 0 -207 -95t-64 -320q0 -216 68 -320t205 -104q96 0 160.5 52t79.5 160l182 -12q-14 -104 -69.5 -181t-144 -119t-203.5 -42q-227 0 -346.5 143.5t-119.5 418.5z M387 -332q50 -6 86 -6q147 0 147 81q0 38 -33 57.5t-100 19.5q-22 0 -36 -0.5t-21 -1.5l65 182h107l-39 -100q94 -3 141 -43.5t47 -109.5q0 -91 -68.5 -136t-205.5 -45q-61 0 -90 4v98z" />
<glyph unicode="&#xe8;" d="M87 548q0 268 125.5 411t358.5 143q239 0 358 -144t119 -431v-24h-772q0 -186 77 -287t225 -101q117 0 187.5 47t95.5 119l158 -45q-97 -256 -441 -256q-240 0 -365.5 143t-125.5 425zM278 641h584q-15 171 -87 249.5t-207 78.5q-131 0 -207.5 -87.5t-82.5 -240.5z M327 1479v29h207l217 -287v-20h-94z" />
<glyph unicode="&#xe9;" d="M87 548q0 268 125.5 411t358.5 143q239 0 358 -144t119 -431v-24h-772q0 -186 77 -287t225 -101q117 0 187.5 47t95.5 119l158 -45q-97 -256 -441 -256q-240 0 -365.5 143t-125.5 425zM278 641h584q-15 171 -87 249.5t-207 78.5q-131 0 -207.5 -87.5t-82.5 -240.5z M440 1201v20l217 287h207v-29l-330 -278h-94z" />
<glyph unicode="&#xea;" d="M87 548q0 268 125.5 411t358.5 143q239 0 358 -144t119 -431v-24h-772q0 -186 77 -287t225 -101q117 0 187.5 47t95.5 119l158 -45q-97 -256 -441 -256q-240 0 -365.5 143t-125.5 425zM246 1201v20l234 270h204l224 -270v-20h-105l-219 169h-2l-232 -169h-104zM278 641 h584q-15 171 -87 249.5t-207 78.5q-131 0 -207.5 -87.5t-82.5 -240.5z" />
<glyph unicode="&#xeb;" d="M87 548q0 268 125.5 411t358.5 143q239 0 358 -144t119 -431v-24h-772q0 -186 77 -287t225 -101q117 0 187.5 47t95.5 119l158 -45q-97 -256 -441 -256q-240 0 -365.5 143t-125.5 425zM278 641h584q-15 171 -87 249.5t-207 78.5q-131 0 -207.5 -87.5t-82.5 -240.5z M293 1219v184h165v-184h-165zM687 1219v184h163v-184h-163z" />
<glyph unicode="&#xec;" horiz-adv-x="569" d="M10 1479v29h207l217 -287v-20h-94zM194 0v1082h180v-1082h-180z" />
<glyph unicode="&#xed;" horiz-adv-x="569" d="M135 1201v20l217 287h207v-29l-330 -278h-94zM194 0v1082h180v-1082h-180z" />
<glyph unicode="&#xee;" horiz-adv-x="569" d="M-44 1201v20l234 270h204l224 -270v-20h-105l-219 169h-2l-232 -169h-104zM194 0v1082h180v-1082h-180z" />
<glyph unicode="&#xef;" horiz-adv-x="569" d="M8 1219v184h165v-184h-165zM194 0v1082h180v-1082h-180zM402 1219v184h163v-184h-163z" />
<glyph unicode="&#xf0;" d="M86 481q0 244 124 371t363 127q136 0 231 -59q-109 217 -234 331l-301 -133v114l218 94q-55 44 -115 83.5t-127 74.5h209q81 -37 170 -102l306 132l-1 -112l-211 -92q171 -156 258 -359t87 -435q0 -265 -124.5 -400.5t-372.5 -135.5q-232 0 -356 129t-124 372zM275 481 q0 -190 72 -279t217 -89q161 0 235.5 87.5t74.5 280.5q0 192 -70.5 278.5t-226.5 86.5q-157 0 -229.5 -87t-72.5 -278z" />
<glyph unicode="&#xf1;" d="M140 1082h170q2 -19 3.5 -48t2.5 -64t2 -73h3q62 112 143.5 158.5t202.5 46.5q178 0 260.5 -91t82.5 -290v-721h-181v686q0 155 -50 216t-173 61q-130 0 -205 -89t-75 -247v-627h-180v851q0 95 -1.5 152.5t-4.5 78.5zM222 1201q17 153 69 210.5t134 57.5q44 0 87.5 -20.5 t84.5 -44.5q37 -21 70.5 -37.5t62.5 -16.5q50 0 79.5 30t37.5 89h92q-17 -148 -67 -208t-135 -60q-40 0 -80.5 18.5t-79.5 40.5q-40 23 -77 41.5t-69 18.5q-55 0 -82 -31t-36 -88h-91z" />
<glyph unicode="&#xf2;" d="M86 542q0 280 121.5 420t363.5 140q248 0 365 -136.5t117 -423.5q0 -284 -125 -423t-363 -139q-237 0 -358 144.5t-121 417.5zM275 542q0 -214 69.5 -321.5t218.5 -107.5q162 0 231.5 104t69.5 325q0 224 -66.5 325.5t-223.5 101.5q-158 0 -228.5 -103.5t-70.5 -323.5z M329 1479v29h207l217 -287v-20h-94z" />
<glyph unicode="&#xf3;" d="M86 542q0 280 121.5 420t363.5 140q248 0 365 -136.5t117 -423.5q0 -284 -125 -423t-363 -139q-237 0 -358 144.5t-121 417.5zM275 542q0 -214 69.5 -321.5t218.5 -107.5q162 0 231.5 104t69.5 325q0 224 -66.5 325.5t-223.5 101.5q-158 0 -228.5 -103.5t-70.5 -323.5z M431 1201v20l217 287h207v-29l-330 -278h-94z" />
<glyph unicode="&#xf4;" d="M86 542q0 280 121.5 420t363.5 140q248 0 365 -136.5t117 -423.5q0 -284 -125 -423t-363 -139q-237 0 -358 144.5t-121 417.5zM241 1201v20l234 270h204l224 -270v-20h-105l-219 169h-2l-232 -169h-104zM275 542q0 -214 69.5 -321.5t218.5 -107.5q162 0 231.5 104 t69.5 325q0 224 -66.5 325.5t-223.5 101.5q-158 0 -228.5 -103.5t-70.5 -323.5z" />
<glyph unicode="&#xf5;" d="M86 542q0 280 121.5 420t363.5 140q248 0 365 -136.5t117 -423.5q0 -284 -125 -423t-363 -139q-237 0 -358 144.5t-121 417.5zM224 1201q17 153 69 210.5t134 57.5q44 0 87.5 -20.5t84.5 -44.5q37 -21 70.5 -37.5t62.5 -16.5q50 0 79.5 30t37.5 89h92q-17 -148 -67 -208 t-135 -60q-40 0 -80.5 18.5t-79.5 40.5q-40 23 -77 41.5t-69 18.5q-55 0 -82 -31t-36 -88h-91zM275 542q0 -214 69.5 -321.5t218.5 -107.5q162 0 231.5 104t69.5 325q0 224 -66.5 325.5t-223.5 101.5q-158 0 -228.5 -103.5t-70.5 -323.5z" />
<glyph unicode="&#xf6;" d="M86 542q0 280 121.5 420t363.5 140q248 0 365 -136.5t117 -423.5q0 -284 -125 -423t-363 -139q-237 0 -358 144.5t-121 417.5zM275 542q0 -214 69.5 -321.5t218.5 -107.5q162 0 231.5 104t69.5 325q0 224 -66.5 325.5t-223.5 101.5q-158 0 -228.5 -103.5t-70.5 -323.5z M295 1219v184h165v-184h-165zM689 1219v184h163v-184h-163z" />
<glyph unicode="&#xf7;" horiz-adv-x="1124" d="M65 608v146h995v-146h-995zM478 223v183h168v-183h-168zM478 958v183h168v-183h-168z" />
<glyph unicode="&#xf8;" horiz-adv-x="1251" d="M44 -38l184 214q-83 139 -83 366q0 280 121.5 420t363.5 140q201 0 316 -91l91 105h167l-173 -201q81 -133 81 -373q0 -284 -125 -423t-363 -139q-194 0 -313 98l-100 -116h-167zM334 542q0 -129 24 -215l482 561q-67 81 -207 81q-158 0 -228.5 -103.5t-70.5 -323.5z M417 201q67 -88 205 -88q162 0 231.5 104t69.5 325q0 127 -23 221z" />
<glyph unicode="&#xf9;" d="M139 361v721h181v-686q0 -162 50.5 -219.5t172.5 -57.5q130 0 205 89t75 247v627h180v-851q0 -94 1.5 -152t4.5 -79h-170q-1 5 -3.5 47t-4.5 138h-3q-62 -112 -143.5 -158.5t-202.5 -46.5q-178 0 -260.5 88.5t-82.5 292.5zM342 1479v29h207l217 -287v-20h-94z" />
<glyph unicode="&#xfa;" d="M139 361v721h181v-686q0 -162 50.5 -219.5t172.5 -57.5q130 0 205 89t75 247v627h180v-851q0 -94 1.5 -152t4.5 -79h-170q-1 5 -3.5 47t-4.5 138h-3q-62 -112 -143.5 -158.5t-202.5 -46.5q-178 0 -260.5 88.5t-82.5 292.5zM415 1201v20l217 287h207v-29l-330 -278h-94z " />
<glyph unicode="&#xfb;" d="M139 361v721h181v-686q0 -162 50.5 -219.5t172.5 -57.5q130 0 205 89t75 247v627h180v-851q0 -94 1.5 -152t4.5 -79h-170q-1 5 -3.5 47t-4.5 138h-3q-62 -112 -143.5 -158.5t-202.5 -46.5q-178 0 -260.5 88.5t-82.5 292.5zM240 1201v20l234 270h204l224 -270v-20h-105 l-219 169h-2l-232 -169h-104z" />
<glyph unicode="&#xfc;" d="M139 361v721h181v-686q0 -162 50.5 -219.5t172.5 -57.5q130 0 205 89t75 247v627h180v-851q0 -94 1.5 -152t4.5 -79h-170q-1 5 -3.5 47t-4.5 138h-3q-62 -112 -143.5 -158.5t-202.5 -46.5q-178 0 -260.5 88.5t-82.5 292.5zM282 1219v184h165v-184h-165zM676 1219v184h163 v-184h-163z" />
<glyph unicode="&#xfd;" horiz-adv-x="1024" d="M5 1082h192l228 -598q25 -64 53.5 -145t44.5 -143q25 71 50.5 141t49.5 140l207 605h190l-416 -1082q-34 -86 -65 -150.5t-60 -106.5q-58 -85 -128.5 -126.5t-159.5 -41.5q-72 0 -124 11v135q38 -6 84 -6q84 0 155.5 62.5t127.5 227.5zM355 1201v20l217 287h207v-29 l-330 -278h-94z" />
<glyph unicode="&#xfe;" d="M138 -425v1909h180v-423q0 -32 -1 -70.5t-3 -82.5h6q48 100 127 146.5t208 46.5q200 0 299 -134t99 -421q0 -283 -99.5 -424.5t-298.5 -141.5q-250 0 -336 188h-5q4 -7 4 -170v-423h-180zM318 528q0 -213 68 -314t221 -101q134 0 195.5 98.5t61.5 330.5q0 226 -61 323 t-194 97q-151 0 -221 -102.5t-70 -331.5z" />
<glyph unicode="&#xff;" horiz-adv-x="1024" d="M5 1082h192l228 -598q25 -64 53.5 -145t44.5 -143q25 71 50.5 141t49.5 140l207 605h190l-416 -1082q-34 -86 -65 -150.5t-60 -106.5q-58 -85 -128.5 -126.5t-159.5 -41.5q-72 0 -124 11v135q38 -6 84 -6q84 0 155.5 62.5t127.5 227.5zM232 1219v184h165v-184h-165z M626 1219v184h163v-184h-163z" />
<glyph unicode="&#x152;" horiz-adv-x="2048" d="M97 711q0 222 83 380.5t238.5 243.5t372.5 85q53 0 106.5 -3t105.5 -8h914v-156h-803v-452h743v-154h-743v-491h844v-156h-959q-34 -5 -86.5 -7.5t-123.5 -2.5q-215 0 -370.5 87t-238.5 249t-83 385zM291 711q0 -268 131.5 -417t366.5 -149q41 0 74.5 1t59.5 3v1111 q-45 4 -81 4h-51q-245 0 -372.5 -143t-127.5 -410z" />
<glyph unicode="&#x153;" horiz-adv-x="1933" d="M86 542q0 279 126.5 419.5t368.5 140.5q281 0 398 -177q126 177 386 177q239 0 358 -144t119 -431v-24h-772q0 -186 77 -287t225 -101q117 0 187.5 47t95.5 119l158 -45q-97 -256 -441 -256q-274 0 -396 183q-124 -183 -401 -183q-238 0 -363.5 144.5t-125.5 417.5z M275 542q0 -214 74.5 -321.5t223.5 -107.5q164 0 236 104t72 325q0 219 -69 323t-228 104q-162 0 -235.5 -106.5t-73.5 -320.5zM1072 641h584q-15 171 -87 249.5t-207 78.5q-131 0 -207.5 -87.5t-82.5 -240.5z" />
<glyph unicode="&#x178;" horiz-adv-x="1366" d="M45 1409h210l429 -671l427 671h210l-544 -825v-584h-190v584zM405 1530v184h165v-184h-165zM799 1530v184h163v-184h-163z" />
<glyph unicode="&#x2c6;" horiz-adv-x="683" d="M1 1201v20l234 270h204l224 -270v-20h-105l-219 169h-2l-232 -169h-104z" />
<glyph unicode="&#x2dc;" horiz-adv-x="682" d="M-23 1201q17 153 69 210.5t134 57.5q44 0 87.5 -20.5t84.5 -44.5q37 -21 70.5 -37.5t62.5 -16.5q50 0 79.5 30t37.5 89h92q-17 -148 -67 -208t-135 -60q-40 0 -80.5 18.5t-79.5 40.5q-40 23 -77 41.5t-69 18.5q-55 0 -82 -31t-36 -88h-91z" />
<glyph unicode="&#x2000;" horiz-adv-x="899" />
<glyph unicode="&#x2001;" horiz-adv-x="1798" />
<glyph unicode="&#x2002;" horiz-adv-x="899" />
<glyph unicode="&#x2003;" horiz-adv-x="1798" />
<glyph unicode="&#x2004;" horiz-adv-x="599" />
<glyph unicode="&#x2005;" horiz-adv-x="449" />
<glyph unicode="&#x2006;" horiz-adv-x="299" />
<glyph unicode="&#x2007;" horiz-adv-x="299" />
<glyph unicode="&#x2008;" horiz-adv-x="224" />
<glyph unicode="&#x2009;" horiz-adv-x="359" />
<glyph unicode="&#x200a;" horiz-adv-x="99" />
<glyph unicode="&#x2010;" horiz-adv-x="682" d="M91 464v160h500v-160h-500z" />
<glyph unicode="&#x2011;" horiz-adv-x="682" d="M91 464v160h500v-160h-500z" />
<glyph unicode="&#x2012;" horiz-adv-x="682" d="M91 464v160h500v-160h-500z" />
<glyph unicode="&#x2013;" d="M0 451v137h1138v-137h-1138z" />
<glyph unicode="&#x2014;" horiz-adv-x="2048" d="M0 451v137h2048v-137h-2048z" />
<glyph unicode="&#x2018;" horiz-adv-x="455" d="M127 952v146q0 97 18.5 170.5t61.5 140.5h121q-47 -68 -71 -134t-24 -128h89v-195h-195z" />
<glyph unicode="&#x2019;" horiz-adv-x="455" d="M127 952q94 136 94 260h-88v197h195v-145q0 -105 -19 -176.5t-59 -135.5h-123z" />
<glyph unicode="&#x201a;" horiz-adv-x="455" d="M127 -262q47 68 70.5 133.5t23.5 128.5h-88v195h195v-144q0 -106 -19 -177t-59 -136h-123z" />
<glyph unicode="&#x201c;" horiz-adv-x="682" d="M75 952v146q0 97 18.5 170.5t61.5 140.5h121q-47 -68 -71 -134t-24 -128h89v-195h-195zM407 952v146q0 95 18 169.5t60 141.5h122q-47 -68 -70.5 -133.5t-23.5 -128.5h88v-195h-194z" />
<glyph unicode="&#x201d;" horiz-adv-x="682" d="M75 952q94 136 94 262h-88v195h195v-145q0 -105 -19 -176.5t-59 -135.5h-123zM407 952q94 136 94 262h-88v195h194v-145q0 -93 -17 -166t-62 -146h-121z" />
<glyph unicode="&#x201e;" horiz-adv-x="682" d="M75 -262q47 68 70.5 133.5t23.5 128.5h-88v195h195v-144q0 -106 -19 -177t-59 -136h-123zM407 -262q47 68 70.5 133.5t23.5 128.5h-88v195h194v-144q0 -95 -17.5 -168.5t-61.5 -144.5h-121z" />
<glyph unicode="&#x2022;" horiz-adv-x="717" d="M81 682q0 77 37.5 139t100 98.5t136.5 36.5q78 0 141.5 -37t101.5 -99t38 -138q0 -75 -37.5 -139t-101 -103t-142.5 -39q-75 0 -137.5 38.5t-99.5 102.5t-37 140z" />
<glyph unicode="&#x2026;" horiz-adv-x="2048" d="M278 0v219h195v-219h-195zM929 0v219h192v-219h-192zM1576 0v219h194v-219h-194z" />
<glyph unicode="&#x202f;" horiz-adv-x="359" />
<glyph unicode="&#x2039;" horiz-adv-x="682" d="M88 506v63l336 371h167v-31l-335 -372l337 -367v-29h-169z" />
<glyph unicode="&#x203a;" horiz-adv-x="682" d="M89 141v29l338 367l-336 372v31h166l337 -371v-63l-337 -365h-168z" />
<glyph unicode="&#x205f;" horiz-adv-x="449" />
<glyph unicode="&#x20ac;" d="M16 502l40 129h120q-1 20 -2 39.5t-1 38.5q0 22 1 43t2 43h-160l40 127h129q64 508 499 508q175 0 284.5 -84.5t138.5 -238.5l-185 -14q-14 91 -74.5 141t-166.5 50q-142 0 -217.5 -87t-96.5 -275h446l-40 -127h-413q-1 -12 -2 -33.5t-1 -52.5q0 -20 1 -39.5t3 -38.5h452 l-40 -129h-404q22 -195 103 -285.5t219 -90.5q100 0 160 50t74 141l185 -14q-30 -155 -139.5 -239t-283.5 -84q-440 0 -500 522h-171z" />
<glyph unicode="&#x2122;" horiz-adv-x="2048" d="M188 1298v111h650v-111h-261v-664h-134v664h-255zM963 634v775h190l172 -432q17 -43 33.5 -86t32.5 -87q19 48 33.5 86.5t33.5 86.5l175 432h184v-775h-126v452q0 42 0.5 86t1.5 86q-16 -45 -32.5 -87t-33.5 -83l-186 -454h-108l-174 444l-35 91t-33 91v-95.5v-95.5v-435 h-128z" />
<glyph unicode="&#x25fc;" horiz-adv-x="1080" d="M0 0v1080h1080v-1080h-1080z" />
<glyph unicode="&#xfb01;" horiz-adv-x="1024" d="M29 951v131h152v122q0 148 65 213t199 65q75 0 127 -12v-137q-48 8 -80 8q-69 0 -100 -35t-31 -127v-97h211v-131h-211v-951h-180v951h-152zM706 0v1082h180v-1082h-180zM706 1312v172h180v-172h-180z" />
<glyph unicode="&#xfb02;" horiz-adv-x="1024" d="M29 951v131h152v122q0 148 65 213t199 65q75 0 127 -12v-137q-48 8 -80 8q-69 0 -100 -35t-31 -127v-97h211v-131h-211v-951h-180v951h-152zM707 0v1484h180v-1484h-180z" />
<glyph unicode="&#xfb03;" horiz-adv-x="1524" d="M29 951v131h152v122q0 148 65 213t199 65q75 0 127 -12v-137q-48 8 -80 8q-69 0 -100 -35t-31 -127v-97h211v-131h-211v-951h-180v951h-152zM529 951v131h152v122q0 148 65 213t199 65q75 0 127 -12v-137q-48 8 -80 8q-69 0 -100 -35t-31 -127v-97h211v-131h-211v-951 h-180v951h-152zM1206 0v1082h180v-1082h-180zM1206 1312v172h180v-172h-180z" />
<glyph unicode="&#xfb04;" horiz-adv-x="1514" d="M29 951v131h152v122q0 148 65 213t199 65q75 0 127 -12v-137q-48 8 -80 8q-69 0 -100 -35t-31 -127v-97h211v-131h-211v-951h-180v951h-152zM529 951v131h152v122q0 148 65 213t199 65q75 0 127 -12v-137q-48 8 -80 8q-69 0 -100 -35t-31 -127v-97h211v-131h-211v-951 h-180v951h-152zM1207 0v1484h180v-1484h-180z" />
</font>
</defs>
</svg>
