{
	"asset":{
		"generator":"Khronos glTF Blender I/O v3.5.30",
		"version":"2.0"
	},
	"scene":0,
	"scenes":[
		{
			"name":"Scene",
			"nodes":[
				0,
				1,
				2,
				3,
				4,
				5,
				6,
				7
			]
		}
	],
	"nodes":[
		{
			"mesh":0,
			"name":"Curve",
			"scale":[
				120.07603454589844,
				1,
				120.07603454589844
			],
			"translation":[
				-2.9079782962799072,
				0.24409496784210205,
				2.8758976459503174
			]
		},
		{
			"mesh":1,
			"name":"Curve.001",
			"scale":[
				120.07603454589844,
				1,
				120.07603454589844
			],
			"translation":[
				-2.9079782962799072,
				0.24409496784210205,
				2.8758976459503174
			]
		},
		{
			"mesh":2,
			"name":"Curve.002",
			"scale":[
				120.07603454589844,
				1,
				120.07603454589844
			],
			"translation":[
				-2.9079782962799072,
				0.24409496784210205,
				2.8758976459503174
			]
		},
		{
			"mesh":3,
			"name":"Curve.003",
			"scale":[
				120.07603454589844,
				1,
				120.07603454589844
			],
			"translation":[
				-2.9079782962799072,
				0.24409496784210205,
				2.8758976459503174
			]
		},
		{
			"mesh":4,
			"name":"Curve.004",
			"scale":[
				120.07603454589844,
				1,
				120.07603454589844
			],
			"translation":[
				-2.9079782962799072,
				0.24409496784210205,
				2.8758976459503174
			]
		},
		{
			"mesh":5,
			"name":"Curve.005",
			"scale":[
				120.07603454589844,
				1,
				120.07603454589844
			],
			"translation":[
				-2.9079782962799072,
				0.24409496784210205,
				2.8758976459503174
			]
		},
		{
			"mesh":6,
			"name":"Curve.006",
			"scale":[
				120.07603454589844,
				1,
				120.07603454589844
			],
			"translation":[
				-2.9079782962799072,
				0.24409496784210205,
				2.8758976459503174
			]
		},
		{
			"mesh":7,
			"name":"Curve.007",
			"scale":[
				120.07603454589844,
				1,
				120.07603454589844
			],
			"translation":[
				-2.9079782962799072,
				0.24409496784210205,
				2.8758976459503174
			]
		}
	],
	"materials":[
		{
			"doubleSided":true,
			"name":"Material.002",
			"pbrMetallicRoughness":{
				"baseColorFactor":[
					0.16202913224697113,
					0.38132593035697937,
					0.02315346524119377,
					1
				],
				"metallicFactor":0,
				"roughnessFactor":0.4000000059604645
			}
		},
		{
			"doubleSided":true,
			"name":"SVGMat.001",
			"pbrMetallicRoughness":{
				"baseColorFactor":[
					0.039546236395835876,
					0.2581828534603119,
					0.02518685907125473,
					1
				],
				"metallicFactor":0,
				"roughnessFactor":0.4000000059604645
			}
		},
		{
			"doubleSided":true,
			"name":"Material.001",
			"pbrMetallicRoughness":{
				"baseColorFactor":[
					0.06300947815179825,
					0.3049870431423187,
					0.5088812708854675,
					1
				],
				"metallicFactor":0,
				"roughnessFactor":0.4000000059604645
			}
		},
		{
			"doubleSided":true,
			"name":"SVGMat.002",
			"pbrMetallicRoughness":{
				"baseColorFactor":[
					0.05126945674419403,
					0.23074005544185638,
					0.43415364623069763,
					1
				],
				"metallicFactor":0,
				"roughnessFactor":0.4000000059604645
			}
		},
		{
			"doubleSided":true,
			"name":"SVGMat.003",
			"pbrMetallicRoughness":{
				"baseColorFactor":[
					0.05126945674419403,
					0.2541520893573761,
					0.23074005544185638,
					1
				],
				"metallicFactor":0,
				"roughnessFactor":0.4000000059604645
			}
		},
		{
			"doubleSided":true,
			"name":"SVGMat.004",
			"pbrMetallicRoughness":{
				"baseColorFactor":[
					0.03688944876194,
					0.22322796285152435,
					0.11953842639923096,
					1
				],
				"metallicFactor":0,
				"roughnessFactor":0.4000000059604645
			}
		},
		{
			"doubleSided":true,
			"name":"SVGMat.005",
			"pbrMetallicRoughness":{
				"baseColorFactor":[
					0.04373503103852272,
					0.2917706370353699,
					0.07818742096424103,
					1
				],
				"metallicFactor":0,
				"roughnessFactor":0.4000000059604645
			}
		},
		{
			"doubleSided":true,
			"name":"SVGMat.006",
			"pbrMetallicRoughness":{
				"baseColorFactor":[
					0.039546236395835876,
					0.2581828534603119,
					0.02518685907125473,
					1
				],
				"metallicFactor":0,
				"roughnessFactor":0.4000000059604645
			}
		}
	],
	"meshes":[
		{
			"name":"Curve",
			"primitives":[
				{
					"attributes":{
						"POSITION":0,
						"TEXCOORD_0":1,
						"NORMAL":2
					},
					"indices":3,
					"material":0
				}
			]
		},
		{
			"name":"Curve.001",
			"primitives":[
				{
					"attributes":{
						"POSITION":4,
						"TEXCOORD_0":5,
						"NORMAL":6
					},
					"indices":7,
					"material":1
				}
			]
		},
		{
			"name":"Curve.002",
			"primitives":[
				{
					"attributes":{
						"POSITION":8,
						"TEXCOORD_0":9,
						"NORMAL":10
					},
					"indices":11,
					"material":2
				}
			]
		},
		{
			"name":"Curve.003",
			"primitives":[
				{
					"attributes":{
						"POSITION":12,
						"TEXCOORD_0":13,
						"NORMAL":14
					},
					"indices":15,
					"material":3
				}
			]
		},
		{
			"name":"Curve.004",
			"primitives":[
				{
					"attributes":{
						"POSITION":16,
						"TEXCOORD_0":17,
						"NORMAL":18
					},
					"indices":19,
					"material":4
				}
			]
		},
		{
			"name":"Curve.005",
			"primitives":[
				{
					"attributes":{
						"POSITION":20,
						"TEXCOORD_0":21,
						"NORMAL":22
					},
					"indices":23,
					"material":5
				}
			]
		},
		{
			"name":"Curve.006",
			"primitives":[
				{
					"attributes":{
						"POSITION":24,
						"TEXCOORD_0":25,
						"NORMAL":26
					},
					"indices":27,
					"material":6
				}
			]
		},
		{
			"name":"Curve.007",
			"primitives":[
				{
					"attributes":{
						"POSITION":28,
						"TEXCOORD_0":29,
						"NORMAL":30
					},
					"indices":31,
					"material":7
				}
			]
		}
	],
	"accessors":[
		{
			"bufferView":0,
			"componentType":5126,
			"count":120,
			"max":[
				0.048223480582237244,
				0,
				-0.024091914296150208
			],
			"min":[
				0.025620054453611374,
				0,
				-0.03574717044830322
			],
			"type":"VEC3"
		},
		{
			"bufferView":1,
			"componentType":5126,
			"count":120,
			"type":"VEC2"
		},
		{
			"bufferView":2,
			"componentType":5126,
			"count":120,
			"type":"VEC3"
		},
		{
			"bufferView":3,
			"componentType":5123,
			"count":345,
			"type":"SCALAR"
		},
		{
			"bufferView":4,
			"componentType":5126,
			"count":96,
			"max":[
				0.04822978004813194,
				0,
				-0.01250559464097023
			],
			"min":[
				0.025618363171815872,
				0,
				-0.0241423137485981
			],
			"type":"VEC3"
		},
		{
			"bufferView":5,
			"componentType":5126,
			"count":96,
			"type":"VEC2"
		},
		{
			"bufferView":6,
			"componentType":5126,
			"count":96,
			"type":"VEC3"
		},
		{
			"bufferView":7,
			"componentType":5123,
			"count":282,
			"type":"SCALAR"
		},
		{
			"bufferView":8,
			"componentType":5126,
			"count":126,
			"max":[
				0.035817332565784454,
				0,
				-8.805928518995643e-05
			],
			"min":[
				0.02420155331492424,
				0,
				-0.022724837064743042
			],
			"type":"VEC3"
		},
		{
			"bufferView":9,
			"componentType":5126,
			"count":126,
			"type":"VEC2"
		},
		{
			"bufferView":10,
			"componentType":5126,
			"count":126,
			"type":"VEC3"
		},
		{
			"bufferView":11,
			"componentType":5123,
			"count":351,
			"type":"SCALAR"
		},
		{
			"bufferView":12,
			"componentType":5126,
			"count":119,
			"max":[
				0.024259718134999275,
				0,
				-2.650815440574661e-05
			],
			"min":[
				0.012582010589540005,
				0,
				-0.022726809605956078
			],
			"type":"VEC3"
		},
		{
			"bufferView":13,
			"componentType":5126,
			"count":119,
			"type":"VEC2"
		},
		{
			"bufferView":14,
			"componentType":5126,
			"count":119,
			"type":"VEC3"
		},
		{
			"bufferView":15,
			"componentType":5123,
			"count":351,
			"type":"SCALAR"
		},
		{
			"bufferView":16,
			"componentType":5126,
			"count":96,
			"max":[
				0.022666258737444878,
				0,
				-0.012605158612132072
			],
			"min":[
				3.379935515113175e-05,
				0,
				-0.02418731339275837
			],
			"type":"VEC3"
		},
		{
			"bufferView":17,
			"componentType":5126,
			"count":96,
			"type":"VEC2"
		},
		{
			"bufferView":18,
			"componentType":5126,
			"count":96,
			"type":"VEC3"
		},
		{
			"bufferView":19,
			"componentType":5123,
			"count":282,
			"type":"SCALAR"
		},
		{
			"bufferView":20,
			"componentType":5126,
			"count":130,
			"max":[
				0.02267175354063511,
				0,
				-0.024123791605234146
			],
			"min":[
				5.899654934182763e-05,
				0,
				-0.03582001477479935
			],
			"type":"VEC3"
		},
		{
			"bufferView":21,
			"componentType":5126,
			"count":130,
			"type":"VEC2"
		},
		{
			"bufferView":22,
			"componentType":5126,
			"count":130,
			"type":"VEC3"
		},
		{
			"bufferView":23,
			"componentType":5123,
			"count":351,
			"type":"SCALAR"
		},
		{
			"bufferView":24,
			"componentType":5126,
			"count":126,
			"max":[
				0.024376079440116882,
				0,
				-0.025471458211541176
			],
			"min":[
				0.012590543366968632,
				0,
				-0.04824681952595711
			],
			"type":"VEC3"
		},
		{
			"bufferView":25,
			"componentType":5126,
			"count":126,
			"type":"VEC2"
		},
		{
			"bufferView":26,
			"componentType":5126,
			"count":126,
			"type":"VEC3"
		},
		{
			"bufferView":27,
			"componentType":5123,
			"count":351,
			"type":"SCALAR"
		},
		{
			"bufferView":28,
			"componentType":5126,
			"count":96,
			"max":[
				0.03574070706963539,
				0,
				-0.02547428384423256
			],
			"min":[
				0.024304408580064774,
				0,
				-0.04819280654191971
			],
			"type":"VEC3"
		},
		{
			"bufferView":29,
			"componentType":5126,
			"count":96,
			"type":"VEC2"
		},
		{
			"bufferView":30,
			"componentType":5126,
			"count":96,
			"type":"VEC3"
		},
		{
			"bufferView":31,
			"componentType":5123,
			"count":282,
			"type":"SCALAR"
		}
	],
	"bufferViews":[
		{
			"buffer":0,
			"byteLength":1440,
			"byteOffset":0,
			"target":34962
		},
		{
			"buffer":0,
			"byteLength":960,
			"byteOffset":1440,
			"target":34962
		},
		{
			"buffer":0,
			"byteLength":1440,
			"byteOffset":2400,
			"target":34962
		},
		{
			"buffer":0,
			"byteLength":690,
			"byteOffset":3840,
			"target":34963
		},
		{
			"buffer":0,
			"byteLength":1152,
			"byteOffset":4532,
			"target":34962
		},
		{
			"buffer":0,
			"byteLength":768,
			"byteOffset":5684,
			"target":34962
		},
		{
			"buffer":0,
			"byteLength":1152,
			"byteOffset":6452,
			"target":34962
		},
		{
			"buffer":0,
			"byteLength":564,
			"byteOffset":7604,
			"target":34963
		},
		{
			"buffer":0,
			"byteLength":1512,
			"byteOffset":8168,
			"target":34962
		},
		{
			"buffer":0,
			"byteLength":1008,
			"byteOffset":9680,
			"target":34962
		},
		{
			"buffer":0,
			"byteLength":1512,
			"byteOffset":10688,
			"target":34962
		},
		{
			"buffer":0,
			"byteLength":702,
			"byteOffset":12200,
			"target":34963
		},
		{
			"buffer":0,
			"byteLength":1428,
			"byteOffset":12904,
			"target":34962
		},
		{
			"buffer":0,
			"byteLength":952,
			"byteOffset":14332,
			"target":34962
		},
		{
			"buffer":0,
			"byteLength":1428,
			"byteOffset":15284,
			"target":34962
		},
		{
			"buffer":0,
			"byteLength":702,
			"byteOffset":16712,
			"target":34963
		},
		{
			"buffer":0,
			"byteLength":1152,
			"byteOffset":17416,
			"target":34962
		},
		{
			"buffer":0,
			"byteLength":768,
			"byteOffset":18568,
			"target":34962
		},
		{
			"buffer":0,
			"byteLength":1152,
			"byteOffset":19336,
			"target":34962
		},
		{
			"buffer":0,
			"byteLength":564,
			"byteOffset":20488,
			"target":34963
		},
		{
			"buffer":0,
			"byteLength":1560,
			"byteOffset":21052,
			"target":34962
		},
		{
			"buffer":0,
			"byteLength":1040,
			"byteOffset":22612,
			"target":34962
		},
		{
			"buffer":0,
			"byteLength":1560,
			"byteOffset":23652,
			"target":34962
		},
		{
			"buffer":0,
			"byteLength":702,
			"byteOffset":25212,
			"target":34963
		},
		{
			"buffer":0,
			"byteLength":1512,
			"byteOffset":25916,
			"target":34962
		},
		{
			"buffer":0,
			"byteLength":1008,
			"byteOffset":27428,
			"target":34962
		},
		{
			"buffer":0,
			"byteLength":1512,
			"byteOffset":28436,
			"target":34962
		},
		{
			"buffer":0,
			"byteLength":702,
			"byteOffset":29948,
			"target":34963
		},
		{
			"buffer":0,
			"byteLength":1152,
			"byteOffset":30652,
			"target":34962
		},
		{
			"buffer":0,
			"byteLength":768,
			"byteOffset":31804,
			"target":34962
		},
		{
			"buffer":0,
			"byteLength":1152,
			"byteOffset":32572,
			"target":34962
		},
		{
			"buffer":0,
			"byteLength":564,
			"byteOffset":33724,
			"target":34963
		}
	],
	"buffers":[
		{
			"byteLength":34288,
			"uri":"data:application/octet-stream;base64,"
		}
	]
}
